<?xml version="1.0" encoding="UTF-8" standalone="no"?>
<!-- Created with Inkscape (http://www.inkscape.org/) -->

<svg
   width="811.30884mm"
   height="134.29459mm"
   viewBox="0 0 811.30889 134.29458"
   version="1.1"
   id="svg1"
   xml:space="preserve"
   inkscape:version="1.3-beta (cedbd6c6ff, 2023-05-28)"
   sodipodi:docname="logo.svg"
   inkscape:export-filename="SuggestableTMPMaterial.png"
   inkscape:export-xdpi="96"
   inkscape:export-ydpi="96"
   xmlns:inkscape="http://www.inkscape.org/namespaces/inkscape"
   xmlns:sodipodi="http://sodipodi.sourceforge.net/DTD/sodipodi-0.dtd"
   xmlns="http://www.w3.org/2000/svg"
   xmlns:svg="http://www.w3.org/2000/svg"><sodipodi:namedview
     id="namedview1"
     pagecolor="#505050"
     bordercolor="#eeeeee"
     borderopacity="1"
     inkscape:showpageshadow="0"
     inkscape:pageopacity="0"
     inkscape:pagecheckerboard="0"
     inkscape:deskcolor="#505050"
     inkscape:document-units="mm"
     inkscape:zoom="0.093984988"
     inkscape:cx="521.35986"
     inkscape:cy="1399.1596"
     inkscape:window-width="2560"
     inkscape:window-height="1369"
     inkscape:window-x="-8"
     inkscape:window-y="-8"
     inkscape:window-maximized="1"
     inkscape:current-layer="svg1" /><defs
     id="defs1"><clipPath
       clipPathUnits="userSpaceOnUse"
       id="clipPath2"><path
         d="M 0,2834.646 H 2834.646 V 0 H 0 Z"
         transform="translate(-2614.1191,-1428.0664)"
         id="path2" /></clipPath><clipPath
       clipPathUnits="userSpaceOnUse"
       id="clipPath4"><path
         d="M 0,2834.646 H 2834.646 V 0 H 0 Z"
         transform="translate(-1690.7052,-1503.9878)"
         id="path4" /></clipPath><clipPath
       clipPathUnits="userSpaceOnUse"
       id="clipPath6"><path
         d="M 0,2834.646 H 2834.646 V 0 H 0 Z"
         transform="translate(-2670.7861,-1406.4482)"
         id="path6" /></clipPath><clipPath
       clipPathUnits="userSpaceOnUse"
       id="clipPath8"><path
         d="M 0,2834.646 H 2834.646 V 0 H 0 Z"
         transform="translate(-1351.2168,-1327.7744)"
         id="path8" /></clipPath><clipPath
       clipPathUnits="userSpaceOnUse"
       id="clipPath10"><path
         d="M 0,2834.646 H 2834.646 V 0 H 0 Z"
         transform="translate(-2421.3351,-1328.0371)"
         id="path10" /></clipPath><clipPath
       clipPathUnits="userSpaceOnUse"
       id="clipPath12"><path
         d="M 0,2834.646 H 2834.646 V 0 H 0 Z"
         transform="translate(-1817.7256,-1377.7198)"
         id="path12" /></clipPath><clipPath
       clipPathUnits="userSpaceOnUse"
       id="clipPath14"><path
         d="M 0,2834.646 H 2834.646 V 0 H 0 Z"
         transform="translate(-979.64455,-1295.8096)"
         id="path14" /></clipPath><clipPath
       clipPathUnits="userSpaceOnUse"
       id="clipPath16"><path
         d="M 0,2834.646 H 2834.646 V 0 H 0 Z"
         transform="translate(-1141.1455,-1492.1738)"
         id="path16" /></clipPath><clipPath
       clipPathUnits="userSpaceOnUse"
       id="clipPath18"><path
         d="M 0,2834.646 H 2834.646 V 0 H 0 Z"
         transform="translate(-2211.0811,-1506.4981)"
         id="path18" /></clipPath><linearGradient
       x1="0"
       y1="0"
       x2="1"
       y2="0"
       gradientUnits="userSpaceOnUse"
       gradientTransform="matrix(11.596201,-7.608341,-7.608341,-11.596201,87.930616,-459.73647)"
       spreadMethod="pad"
       id="linearGradient20"><stop
         style="stop-opacity:1;stop-color:#8dc63f"
         offset="0"
         id="stop18" /><stop
         style="stop-opacity:1;stop-color:#8dc63f"
         offset="0.47152302"
         id="stop19" /><stop
         style="stop-opacity:1;stop-color:#009444"
         offset="1"
         id="stop20" /></linearGradient><linearGradient
       x1="0"
       y1="0"
       x2="1"
       y2="0"
       gradientUnits="userSpaceOnUse"
       gradientTransform="matrix(-14.826116,-3.0525415,-3.0525415,14.826116,124.07035,-432.45511)"
       spreadMethod="pad"
       id="linearGradient23"><stop
         style="stop-opacity:1;stop-color:#8dc63f"
         offset="0"
         id="stop21" /><stop
         style="stop-opacity:1;stop-color:#8dc63f"
         offset="0.47152302"
         id="stop22" /><stop
         style="stop-opacity:1;stop-color:#009444"
         offset="1"
         id="stop23" /></linearGradient><linearGradient
       x1="0"
       y1="0"
       x2="1"
       y2="0"
       gradientUnits="userSpaceOnUse"
       gradientTransform="matrix(14.824082,-3.0521227,3.0521227,14.824082,75.547114,-403.40777)"
       spreadMethod="pad"
       id="linearGradient26"><stop
         style="stop-opacity:1;stop-color:#8dc63f"
         offset="0"
         id="stop24" /><stop
         style="stop-opacity:1;stop-color:#8dc63f"
         offset="0.47152302"
         id="stop25" /><stop
         style="stop-opacity:1;stop-color:#009444"
         offset="1"
         id="stop26" /></linearGradient><linearGradient
       x1="0"
       y1="0"
       x2="1"
       y2="0"
       gradientUnits="userSpaceOnUse"
       gradientTransform="matrix(13.761783,0,0,-13.761783,92.466449,-422.49023)"
       spreadMethod="pad"
       id="linearGradient29"><stop
         style="stop-opacity:1;stop-color:#009444"
         offset="0"
         id="stop27" /><stop
         style="stop-opacity:1;stop-color:#8dc63f"
         offset="0.87077673"
         id="stop28" /><stop
         style="stop-opacity:1;stop-color:#8dc63f"
         offset="1"
         id="stop29" /></linearGradient><clipPath
       clipPathUnits="userSpaceOnUse"
       id="clipPath31"><path
         d="m 448.883,1924.79 c 178.789,-5.057 271.858,-142.794 287.627,-237.716 v 0 c -0.034,0.05 -3.462,5.972 -5.34,9.19 v 0 c -47.683,108.844 -156.403,178.409 -279.252,178.409 v 0 c -45.723,0 -107.765,-15.482 -148.537,-42.035 v 0 c 31.047,13.101 81.499,26.014 114.213,26.014 v 0 c 145.856,0 267.86,-101.743 299.161,-238.103 v 0 c 2.519,-16.159 11.329,-62.736 8.703,-101.128 v 0 c -0.54,-7.858 -1.425,-15.595 -2.681,-23.227 v 0 c -2.313,-15.148 -4.612,-22.314 -9.962,-38.739 v 0 c -5.256,-15.018 -11.971,-29.339 -19.998,-42.792 v 0 c -30.62,-44.829 -78.367,-62.436 -114.718,-51.334 v 0 c -97.568,29.828 -99.786,123.544 -68.686,166.623 v 0 c -103.213,79.199 -137.129,175.29 -315.176,190.901 v 0 c -60.294,-109.815 -40.514,-211.561 -1.888,-291.636 v 0 c -21.769,124.489 -0.033,196.927 8.713,223.175 v 0 c 36.788,-8.656 41.268,-73.338 74.044,-179.328 v 0 c 35.485,-114.717 128.064,-167.087 216.292,-176.968 v 0 c 0.783,-0.085 1.544,-0.123 2.324,-0.2 v 0 c 10.707,-1.42 21.615,-2.203 32.705,-2.203 v 0 c 57.619,0 108.06,16.406 148.836,51.007 v 0 c 37.612,31.91 66.667,81.098 80.238,127.471 v 0 c 9.565,48.187 14.553,95.566 14.599,95.966 v 0 c 11.061,118.987 89.417,188.489 194.207,201.666 v 0 c -8.769,1.099 -17.685,1.731 -26.744,1.731 v 0 c -73.771,0 -136.924,-47.237 -172.347,-108.304 v 0 c 6.963,168.024 128.615,223.594 164.427,242.416 v 0 c -28.884,-7.445 -131.761,-33.534 -184.556,-167.128 v 0 c -14.683,47.64 -99.288,186.842 -276.261,186.852 v 0 c -6.524,0 -13.165,-0.191 -19.943,-0.58"
         transform="translate(-41.504401,-1814.0464)"
         id="path31" /></clipPath><clipPath
       clipPathUnits="userSpaceOnUse"
       id="clipPath33"><path
         d="m 448.883,1924.79 c 178.789,-5.057 271.858,-142.794 287.627,-237.716 v 0 c -0.034,0.05 -3.462,5.972 -5.34,9.19 v 0 c -47.683,108.844 -156.403,178.409 -279.252,178.409 v 0 c -45.723,0 -107.765,-15.482 -148.537,-42.035 v 0 c 31.047,13.101 81.499,26.014 114.213,26.014 v 0 c 145.856,0 267.86,-101.743 299.161,-238.103 v 0 c 2.519,-16.159 11.329,-62.736 8.703,-101.128 v 0 c -0.54,-7.858 -1.425,-15.595 -2.681,-23.227 v 0 c -2.313,-15.148 -4.612,-22.314 -9.962,-38.739 v 0 c -5.256,-15.018 -11.971,-29.339 -19.998,-42.792 v 0 c -30.62,-44.829 -78.367,-62.436 -114.718,-51.334 v 0 c -97.568,29.828 -99.786,123.544 -68.686,166.623 v 0 c -103.213,79.199 -137.129,175.29 -315.176,190.901 v 0 c -60.294,-109.815 -40.514,-211.561 -1.888,-291.636 v 0 c -21.769,124.489 -0.033,196.927 8.713,223.175 v 0 c 36.788,-8.656 41.268,-73.338 74.044,-179.328 v 0 c 35.485,-114.717 128.064,-167.087 216.292,-176.968 v 0 c 0.783,-0.085 1.544,-0.123 2.324,-0.2 v 0 c 10.707,-1.42 21.615,-2.203 32.705,-2.203 v 0 c 57.619,0 108.06,16.406 148.836,51.007 v 0 c 37.612,31.91 66.667,81.098 80.238,127.471 v 0 c 9.565,48.187 14.553,95.566 14.599,95.966 v 0 c 11.061,118.987 89.417,188.489 194.207,201.666 v 0 c -8.769,1.099 -17.685,1.731 -26.744,1.731 v 0 c -73.771,0 -136.924,-47.237 -172.347,-108.304 v 0 c 6.963,168.024 128.615,223.594 164.427,242.416 v 0 c -28.884,-7.445 -131.761,-33.534 -184.556,-167.128 v 0 c -14.683,47.64 -99.288,186.842 -276.261,186.852 v 0 c -6.524,0 -13.165,-0.191 -19.943,-0.58"
         transform="translate(-41.504401,-1814.0464)"
         id="path33" /></clipPath><clipPath
       clipPathUnits="userSpaceOnUse"
       id="clipPath41"><path
         d="m 448.883,1924.79 c 178.789,-5.057 271.858,-142.794 287.627,-237.716 v 0 c -0.034,0.05 -3.462,5.972 -5.34,9.19 v 0 c -47.683,108.844 -156.403,178.409 -279.252,178.409 v 0 c -45.723,0 -107.765,-15.482 -148.537,-42.035 v 0 c 31.047,13.101 81.499,26.014 114.213,26.014 v 0 c 145.856,0 267.86,-101.743 299.161,-238.103 v 0 c 2.519,-16.159 11.329,-62.736 8.703,-101.128 v 0 c -0.54,-7.858 -1.425,-15.595 -2.681,-23.227 v 0 c -2.313,-15.148 -4.612,-22.314 -9.962,-38.739 v 0 c -5.256,-15.018 -11.971,-29.339 -19.998,-42.792 v 0 c -30.62,-44.829 -78.367,-62.436 -114.718,-51.334 v 0 c -97.568,29.828 -99.786,123.544 -68.686,166.623 v 0 c -103.213,79.199 -137.129,175.29 -315.176,190.901 v 0 c -60.294,-109.815 -40.514,-211.561 -1.888,-291.636 v 0 c -21.769,124.489 -0.033,196.927 8.713,223.175 v 0 c 36.788,-8.656 41.268,-73.338 74.044,-179.328 v 0 c 35.485,-114.717 128.064,-167.087 216.292,-176.968 v 0 c 0.783,-0.085 1.544,-0.123 2.324,-0.2 v 0 c 10.707,-1.42 21.615,-2.203 32.705,-2.203 v 0 c 57.619,0 108.06,16.406 148.836,51.007 v 0 c 37.612,31.91 66.667,81.098 80.238,127.471 v 0 c 9.565,48.187 14.553,95.566 14.599,95.966 v 0 c 11.061,118.987 89.417,188.489 194.207,201.666 v 0 c -8.769,1.099 -17.685,1.731 -26.744,1.731 v 0 c -73.771,0 -136.924,-47.237 -172.347,-108.304 v 0 c 6.963,168.024 128.615,223.594 164.427,242.416 v 0 c -28.884,-7.445 -131.761,-33.534 -184.556,-167.128 v 0 c -14.683,47.64 -99.288,186.842 -276.261,186.852 v 0 c -6.524,0 -13.165,-0.191 -19.943,-0.58"
         transform="matrix(1.3333333,0,0,-1.3333333,0,3779.5333)"
         id="path41" /></clipPath><clipPath
       clipPathUnits="userSpaceOnUse"
       id="clipPath35"><path
         d="m -117.664,1002.28 h 1222.599 v 926.118 H -117.664 Z"
         transform="matrix(1.3333333,0,0,-1.3333333,0,3779.5333)"
         id="path35" /></clipPath><linearGradient
       x1="0"
       y1="0"
       x2="1"
       y2="0"
       gradientUnits="userSpaceOnUse"
       gradientTransform="matrix(281.52924,930.12567,-930.12567,281.52924,418.27496,997.3941)"
       spreadMethod="pad"
       id="linearGradient35"><stop
         style="stop-opacity:1;stop-color:#f47920"
         offset="0"
         id="stop33" /><stop
         style="stop-opacity:1;stop-color:#f47920"
         offset="0.06753821"
         id="stop34" /><stop
         style="stop-opacity:1;stop-color:#bb141a"
         offset="1"
         id="stop35" /></linearGradient><clipPath
       clipPathUnits="userSpaceOnUse"
       id="clipPath38"><path
         d="m -117.664,1002.28 h 1222.599 v 926.118 H -117.664 Z"
         transform="matrix(1.3333333,0,0,-1.3333333,0,3779.5333)"
         id="path38" /></clipPath><linearGradient
       x1="0"
       y1="0"
       x2="1"
       y2="0"
       gradientUnits="userSpaceOnUse"
       gradientTransform="matrix(396.95291,497.53641,-497.53641,396.95291,221.89015,988.95605)"
       spreadMethod="pad"
       id="linearGradient38"><stop
         style="stop-opacity:1;stop-color:#f47920"
         offset="0"
         id="stop36" /><stop
         style="stop-opacity:1;stop-color:#f47920"
         offset="0.06753821"
         id="stop37" /><stop
         style="stop-opacity:1;stop-color:#bb141a"
         offset="1"
         id="stop38" /></linearGradient><clipPath
       clipPathUnits="userSpaceOnUse"
       id="clipPath65"><path
         d="m 448.883,1924.79 c 178.789,-5.057 271.858,-142.794 287.627,-237.716 v 0 c -0.034,0.05 -3.462,5.972 -5.34,9.19 v 0 c -47.683,108.844 -156.403,178.409 -279.252,178.409 v 0 c -45.723,0 -107.765,-15.482 -148.537,-42.035 v 0 c 31.047,13.101 81.499,26.014 114.213,26.014 v 0 c 145.856,0 267.86,-101.743 299.161,-238.103 v 0 c 2.519,-16.159 11.329,-62.736 8.703,-101.128 v 0 c -0.54,-7.858 -1.425,-15.595 -2.681,-23.227 v 0 c -2.313,-15.148 -4.612,-22.314 -9.962,-38.739 v 0 c -5.256,-15.018 -11.971,-29.339 -19.998,-42.792 v 0 c -30.62,-44.829 -78.367,-62.436 -114.718,-51.334 v 0 c -97.568,29.828 -99.786,123.544 -68.686,166.623 v 0 c -103.213,79.199 -137.129,175.29 -315.176,190.901 v 0 c -60.294,-109.815 -40.514,-211.561 -1.888,-291.636 v 0 c -21.769,124.489 -0.033,196.927 8.713,223.175 v 0 c 36.788,-8.656 41.268,-73.338 74.044,-179.328 v 0 c 35.485,-114.717 128.064,-167.087 216.292,-176.968 v 0 c 0.783,-0.085 1.544,-0.123 2.324,-0.2 v 0 c 10.707,-1.42 21.615,-2.203 32.705,-2.203 v 0 c 57.619,0 108.06,16.406 148.836,51.007 v 0 c 37.612,31.91 66.667,81.098 80.238,127.471 v 0 c 9.565,48.187 14.553,95.566 14.599,95.966 v 0 c 11.061,118.987 89.417,188.489 194.207,201.666 v 0 c -8.769,1.099 -17.685,1.731 -26.744,1.731 v 0 c -73.771,0 -136.924,-47.237 -172.347,-108.304 v 0 c 6.963,168.024 128.615,223.594 164.427,242.416 v 0 c -28.884,-7.445 -131.761,-33.534 -184.556,-167.128 v 0 c -14.683,47.64 -99.288,186.842 -276.261,186.852 v 0 c -6.524,0 -13.165,-0.191 -19.943,-0.58"
         transform="translate(-359.47071,-1974.2612)"
         id="path65" /></clipPath><clipPath
       clipPathUnits="userSpaceOnUse"
       id="clipPath67"><path
         d="m 448.883,1924.79 c 178.789,-5.057 271.858,-142.794 287.627,-237.716 v 0 c -0.034,0.05 -3.462,5.972 -5.34,9.19 v 0 c -47.683,108.844 -156.403,178.409 -279.252,178.409 v 0 c -45.723,0 -107.765,-15.482 -148.537,-42.035 v 0 c 31.047,13.101 81.499,26.014 114.213,26.014 v 0 c 145.856,0 267.86,-101.743 299.161,-238.103 v 0 c 2.519,-16.159 11.329,-62.736 8.703,-101.128 v 0 c -0.54,-7.858 -1.425,-15.595 -2.681,-23.227 v 0 c -2.313,-15.148 -4.612,-22.314 -9.962,-38.739 v 0 c -5.256,-15.018 -11.971,-29.339 -19.998,-42.792 v 0 c -30.62,-44.829 -78.367,-62.436 -114.718,-51.334 v 0 c -97.568,29.828 -99.786,123.544 -68.686,166.623 v 0 c -103.213,79.199 -137.129,175.29 -315.176,190.901 v 0 c -60.294,-109.815 -40.514,-211.561 -1.888,-291.636 v 0 c -21.769,124.489 -0.033,196.927 8.713,223.175 v 0 c 36.788,-8.656 41.268,-73.338 74.044,-179.328 v 0 c 35.485,-114.717 128.064,-167.087 216.292,-176.968 v 0 c 0.783,-0.085 1.544,-0.123 2.324,-0.2 v 0 c 10.707,-1.42 21.615,-2.203 32.705,-2.203 v 0 c 57.619,0 108.06,16.406 148.836,51.007 v 0 c 37.612,31.91 66.667,81.098 80.238,127.471 v 0 c 9.565,48.187 14.553,95.566 14.599,95.966 v 0 c 11.061,118.987 89.417,188.489 194.207,201.666 v 0 c -8.769,1.099 -17.685,1.731 -26.744,1.731 v 0 c -73.771,0 -136.924,-47.237 -172.347,-108.304 v 0 c 6.963,168.024 128.615,223.594 164.427,242.416 v 0 c -28.884,-7.445 -131.761,-33.534 -184.556,-167.128 v 0 c -14.683,47.64 -99.288,186.842 -276.261,186.852 v 0 c -6.524,0 -13.165,-0.191 -19.943,-0.58"
         transform="translate(-359.47071,-1974.2612)"
         id="path67" /></clipPath><clipPath
       clipPathUnits="userSpaceOnUse"
       id="clipPath70"><path
         d="m 448.883,1924.79 c 178.789,-5.057 271.858,-142.794 287.627,-237.716 v 0 c -0.034,0.05 -3.462,5.972 -5.34,9.19 v 0 c -47.683,108.844 -156.403,178.409 -279.252,178.409 v 0 c -45.723,0 -107.765,-15.482 -148.537,-42.035 v 0 c 31.047,13.101 81.499,26.014 114.213,26.014 v 0 c 145.856,0 267.86,-101.743 299.161,-238.103 v 0 c 2.519,-16.159 11.329,-62.736 8.703,-101.128 v 0 c -0.54,-7.858 -1.425,-15.595 -2.681,-23.227 v 0 c -2.313,-15.148 -4.612,-22.314 -9.962,-38.739 v 0 c -5.256,-15.018 -11.971,-29.339 -19.998,-42.792 v 0 c -30.62,-44.829 -78.367,-62.436 -114.718,-51.334 v 0 c -97.568,29.828 -99.786,123.544 -68.686,166.623 v 0 c -103.213,79.199 -137.129,175.29 -315.176,190.901 v 0 c -60.294,-109.815 -40.514,-211.561 -1.888,-291.636 v 0 c -21.769,124.489 -0.033,196.927 8.713,223.175 v 0 c 36.788,-8.656 41.268,-73.338 74.044,-179.328 v 0 c 35.485,-114.717 128.064,-167.087 216.292,-176.968 v 0 c 0.783,-0.085 1.544,-0.123 2.324,-0.2 v 0 c 10.707,-1.42 21.615,-2.203 32.705,-2.203 v 0 c 57.619,0 108.06,16.406 148.836,51.007 v 0 c 37.612,31.91 66.667,81.098 80.238,127.471 v 0 c 9.565,48.187 14.553,95.566 14.599,95.966 v 0 c 11.061,118.987 89.417,188.489 194.207,201.666 v 0 c -8.769,1.099 -17.685,1.731 -26.744,1.731 v 0 c -73.771,0 -136.924,-47.237 -172.347,-108.304 v 0 c 6.963,168.024 128.615,223.594 164.427,242.416 v 0 c -28.884,-7.445 -131.761,-33.534 -184.556,-167.128 v 0 c -14.683,47.64 -99.288,186.842 -276.261,186.852 v 0 c -6.524,0 -13.165,-0.191 -19.943,-0.58"
         transform="matrix(1.3333333,0,0,-1.3333333,0,3779.5333)"
         id="path70" /></clipPath><linearGradient
       x1="0"
       y1="0"
       x2="1"
       y2="0"
       gradientUnits="userSpaceOnUse"
       gradientTransform="matrix(491.45358,770.78558,-770.78558,491.45358,574.07916,1103.8285)"
       spreadMethod="pad"
       id="linearGradient69"><stop
         style="stop-opacity:1;stop-color:#f47920"
         offset="0"
         id="stop67" /><stop
         style="stop-opacity:1;stop-color:#f47920"
         offset="0.06753821"
         id="stop68" /><stop
         style="stop-opacity:1;stop-color:#bb141a"
         offset="1"
         id="stop69" /></linearGradient><clipPath
       clipPathUnits="userSpaceOnUse"
       id="clipPath73"><path
         d="m 448.883,1924.79 c 178.789,-5.057 271.858,-142.794 287.627,-237.716 v 0 c -0.034,0.05 -3.462,5.972 -5.34,9.19 v 0 c -47.683,108.844 -156.403,178.409 -279.252,178.409 v 0 c -45.723,0 -107.765,-15.482 -148.537,-42.035 v 0 c 31.047,13.101 81.499,26.014 114.213,26.014 v 0 c 145.856,0 267.86,-101.743 299.161,-238.103 v 0 c 2.519,-16.159 11.329,-62.736 8.703,-101.128 v 0 c -0.54,-7.858 -1.425,-15.595 -2.681,-23.227 v 0 c -2.313,-15.148 -4.612,-22.314 -9.962,-38.739 v 0 c -5.256,-15.018 -11.971,-29.339 -19.998,-42.792 v 0 c -30.62,-44.829 -78.367,-62.436 -114.718,-51.334 v 0 c -97.568,29.828 -99.786,123.544 -68.686,166.623 v 0 c -103.213,79.199 -137.129,175.29 -315.176,190.901 v 0 c -60.294,-109.815 -40.514,-211.561 -1.888,-291.636 v 0 c -21.769,124.489 -0.033,196.927 8.713,223.175 v 0 c 36.788,-8.656 41.268,-73.338 74.044,-179.328 v 0 c 35.485,-114.717 128.064,-167.087 216.292,-176.968 v 0 c 0.783,-0.085 1.544,-0.123 2.324,-0.2 v 0 c 10.707,-1.42 21.615,-2.203 32.705,-2.203 v 0 c 57.619,0 108.06,16.406 148.836,51.007 v 0 c 37.612,31.91 66.667,81.098 80.238,127.471 v 0 c 9.565,48.187 14.553,95.566 14.599,95.966 v 0 c 11.061,118.987 89.417,188.489 194.207,201.666 v 0 c -8.769,1.099 -17.685,1.731 -26.744,1.731 v 0 c -73.771,0 -136.924,-47.237 -172.347,-108.304 v 0 c 6.963,168.024 128.615,223.594 164.427,242.416 v 0 c -28.884,-7.445 -131.761,-33.534 -184.556,-167.128 v 0 c -14.683,47.64 -99.288,186.842 -276.261,186.852 v 0 c -6.524,0 -13.165,-0.191 -19.943,-0.58"
         transform="matrix(1.3333333,0,0,-1.3333333,0,3779.5333)"
         id="path73" /></clipPath><linearGradient
       x1="0"
       y1="0"
       x2="1"
       y2="0"
       gradientUnits="userSpaceOnUse"
       gradientTransform="matrix(498.84674,358.90915,-358.90915,498.84677,231.01506,1266.4089)"
       spreadMethod="pad"
       id="linearGradient72"><stop
         style="stop-opacity:1;stop-color:#f47920"
         offset="0"
         id="stop70" /><stop
         style="stop-opacity:1;stop-color:#f47920"
         offset="0.06753821"
         id="stop71" /><stop
         style="stop-opacity:1;stop-color:#bb141a"
         offset="1"
         id="stop72" /></linearGradient><clipPath
       clipPathUnits="userSpaceOnUse"
       id="clipPath78"><path
         d="m 448.883,1924.79 c 178.789,-5.057 271.858,-142.794 287.627,-237.716 v 0 c -0.034,0.05 -3.462,5.972 -5.34,9.19 v 0 c -47.683,108.844 -156.403,178.409 -279.252,178.409 v 0 c -45.723,0 -107.765,-15.482 -148.537,-42.035 v 0 c 31.047,13.101 81.499,26.014 114.213,26.014 v 0 c 145.856,0 267.86,-101.743 299.161,-238.103 v 0 c 2.519,-16.159 11.329,-62.736 8.703,-101.128 v 0 c -0.54,-7.858 -1.425,-15.595 -2.681,-23.227 v 0 c -2.313,-15.148 -4.612,-22.314 -9.962,-38.739 v 0 c -5.256,-15.018 -11.971,-29.339 -19.998,-42.792 v 0 c -30.62,-44.829 -78.367,-62.436 -114.718,-51.334 v 0 c -97.568,29.828 -99.786,123.544 -68.686,166.623 v 0 c -103.213,79.199 -137.129,175.29 -315.176,190.901 v 0 c -60.294,-109.815 -40.514,-211.561 -1.888,-291.636 v 0 c -21.769,124.489 -0.033,196.927 8.713,223.175 v 0 c 36.788,-8.656 41.268,-73.338 74.044,-179.328 v 0 c 35.485,-114.717 128.064,-167.087 216.292,-176.968 v 0 c 0.783,-0.085 1.544,-0.123 2.324,-0.2 v 0 c 10.707,-1.42 21.615,-2.203 32.705,-2.203 v 0 c 57.619,0 108.06,16.406 148.836,51.007 v 0 c 37.612,31.91 66.667,81.098 80.238,127.471 v 0 c 9.565,48.187 14.553,95.566 14.599,95.966 v 0 c 11.061,118.987 89.417,188.489 194.207,201.666 v 0 c -8.769,1.099 -17.685,1.731 -26.744,1.731 v 0 c -73.771,0 -136.924,-47.237 -172.347,-108.304 v 0 c 6.963,168.024 128.615,223.594 164.427,242.416 v 0 c -28.884,-7.445 -131.761,-33.534 -184.556,-167.128 v 0 c -14.683,47.64 -99.288,186.842 -276.261,186.852 v 0 c -6.524,0 -13.165,-0.191 -19.943,-0.58"
         transform="matrix(1.3333333,0,0,-1.3333333,0,3779.5333)"
         id="path78" /></clipPath><clipPath
       clipPathUnits="userSpaceOnUse"
       id="clipPath74"><path
         d="m 772.694,1190.854 h 605.259 v 937.562 H 772.694 Z"
         transform="translate(-1068.8994,-2128.4181)"
         id="path74" /></clipPath><clipPath
       clipPathUnits="userSpaceOnUse"
       id="clipPath75"><path
         d="m 772.694,1190.854 h 605.259 v 937.562 H 772.694 Z"
         transform="translate(-1068.8994,-2128.4181)"
         id="path75" /></clipPath><clipPath
       clipPathUnits="userSpaceOnUse"
       id="clipPath80"><path
         d="M 0,2834.646 H 2834.646 V 0 H 0 Z"
         transform="translate(-709.71682,-1575.2632)"
         id="path80" /></clipPath><clipPath
       clipPathUnits="userSpaceOnUse"
       id="clipPath82"><path
         d="M 0,2834.646 H 2834.646 V 0 H 0 Z"
         transform="translate(-202.70751,-1414.1455)"
         id="path82" /></clipPath><linearGradient
       x1="0"
       y1="0"
       x2="1"
       y2="0"
       gradientUnits="userSpaceOnUse"
       gradientTransform="matrix(-3.8520386,-33.058039,-28.114973,1.1383594,-67.873379,-351.80496)"
       spreadMethod="pad"
       id="linearGradient84"><stop
         style="stop-opacity:1;stop-color:#f6ec1d"
         offset="0"
         id="stop82" /><stop
         style="stop-opacity:1;stop-color:#39b54a"
         offset="0.29434447"
         id="stop83" /><stop
         style="stop-opacity:1;stop-color:#39b54a"
         offset="1"
         id="stop84" /></linearGradient><linearGradient
       x1="0"
       y1="0"
       x2="1"
       y2="0"
       gradientUnits="userSpaceOnUse"
       gradientTransform="matrix(-52.231552,-33.338301,23.417465,-57.795284,-41.88754,-364.3575)"
       spreadMethod="pad"
       id="linearGradient87"><stop
         style="stop-opacity:1;stop-color:#f6ec1d"
         offset="0"
         id="stop85" /><stop
         style="stop-opacity:1;stop-color:#39b54a"
         offset="0.29434447"
         id="stop86" /><stop
         style="stop-opacity:1;stop-color:#39b54a"
         offset="1"
         id="stop87" /></linearGradient><clipPath
       clipPathUnits="userSpaceOnUse"
       id="clipPath91"><path
         d="M 0,2834.646 H 2834.646 V 0 H 0 Z"
         transform="matrix(1.3333333,0,0,-1.3333333,0,3779.5333)"
         id="path91" /></clipPath><linearGradient
       x1="0"
       y1="0"
       x2="1"
       y2="0"
       gradientUnits="userSpaceOnUse"
       gradientTransform="matrix(127.8239,-6.527451,6.527451,127.8239,201.44244,1830.2462)"
       spreadMethod="pad"
       id="linearGradient90"><stop
         style="stop-opacity:1;stop-color:#8dc63f"
         offset="0"
         id="stop88" /><stop
         style="stop-opacity:1;stop-color:#8dc63f"
         offset="0.5032068"
         id="stop89" /><stop
         style="stop-opacity:1;stop-color:#009444"
         offset="1"
         id="stop90" /></linearGradient><linearGradient
       x1="0"
       y1="0"
       x2="1"
       y2="0"
       gradientUnits="userSpaceOnUse"
       gradientTransform="matrix(70.717766,-1.7689222,-1.7689222,-70.717766,-23.435481,-408.70046)"
       spreadMethod="pad"
       id="linearGradient93"><stop
         style="stop-opacity:1;stop-color:#f6ec1d"
         offset="0"
         id="stop91" /><stop
         style="stop-opacity:1;stop-color:#39b54a"
         offset="0.29434447"
         id="stop92" /><stop
         style="stop-opacity:1;stop-color:#39b54a"
         offset="1"
         id="stop93" /></linearGradient><linearGradient
       x1="0"
       y1="0"
       x2="1"
       y2="0"
       gradientUnits="userSpaceOnUse"
       gradientTransform="matrix(24.861253,-23.537093,-23.537093,-24.861253,0.69226684,-405.02448)"
       spreadMethod="pad"
       id="linearGradient96"><stop
         style="stop-opacity:1;stop-color:#f6ec1d"
         offset="0"
         id="stop94" /><stop
         style="stop-opacity:1;stop-color:#39b54a"
         offset="0.62356191"
         id="stop95" /><stop
         style="stop-opacity:1;stop-color:#39b54a"
         offset="1"
         id="stop96" /></linearGradient><clipPath
       clipPathUnits="userSpaceOnUse"
       id="clipPath100"><path
         d="M 0,2834.646 H 2834.646 V 0 H 0 Z"
         transform="matrix(1.3333333,0,0,-1.3333333,0,3779.5333)"
         id="path100" /></clipPath><linearGradient
       x1="0"
       y1="0"
       x2="1"
       y2="0"
       gradientUnits="userSpaceOnUse"
       gradientTransform="matrix(37.348476,43.6259,-43.6259,37.348476,512.24207,1907.2002)"
       spreadMethod="pad"
       id="linearGradient99"><stop
         style="stop-opacity:1;stop-color:#8dc63f"
         offset="0"
         id="stop97" /><stop
         style="stop-opacity:1;stop-color:#8dc63f"
         offset="0.47152302"
         id="stop98" /><stop
         style="stop-opacity:1;stop-color:#009444"
         offset="1"
         id="stop99" /></linearGradient><clipPath
       clipPathUnits="userSpaceOnUse"
       id="clipPath103"><path
         d="M 0,2834.646 H 2834.646 V 0 H 0 Z"
         transform="matrix(1.3333333,0,0,-1.3333333,0,3779.5333)"
         id="path103" /></clipPath><linearGradient
       x1="0"
       y1="0"
       x2="1"
       y2="0"
       gradientUnits="userSpaceOnUse"
       gradientTransform="matrix(-88.448372,103.80582,-103.80582,-88.448372,568.57574,1865.1786)"
       spreadMethod="pad"
       id="linearGradient102"><stop
         style="stop-opacity:1;stop-color:#8dc63f"
         offset="0"
         id="stop100" /><stop
         style="stop-opacity:1;stop-color:#8dc63f"
         offset="0.47152302"
         id="stop101" /><stop
         style="stop-opacity:1;stop-color:#009444"
         offset="1"
         id="stop102" /></linearGradient><linearGradient
       x1="0"
       y1="0"
       x2="1"
       y2="0"
       gradientUnits="userSpaceOnUse"
       gradientTransform="matrix(-45.883895,51.293382,51.293382,45.883895,209.20487,-439.6667)"
       spreadMethod="pad"
       id="linearGradient105"><stop
         style="stop-opacity:1;stop-color:#f6ec1d"
         offset="0"
         id="stop103" /><stop
         style="stop-opacity:1;stop-color:#39b54a"
         offset="0.29434447"
         id="stop104" /><stop
         style="stop-opacity:1;stop-color:#39b54a"
         offset="1"
         id="stop105" /></linearGradient><linearGradient
       x1="0"
       y1="0"
       x2="1"
       y2="0"
       gradientUnits="userSpaceOnUse"
       gradientTransform="matrix(26.894126,-43.855144,-43.855144,-26.894126,196.37286,-324.88385)"
       spreadMethod="pad"
       id="linearGradient108"><stop
         style="stop-opacity:1;stop-color:#f6ec1d"
         offset="0"
         id="stop106" /><stop
         style="stop-opacity:1;stop-color:#39b54a"
         offset="0.29434447"
         id="stop107" /><stop
         style="stop-opacity:1;stop-color:#39b54a"
         offset="1"
         id="stop108" /></linearGradient><linearGradient
       x1="0"
       y1="0"
       x2="1"
       y2="0"
       gradientUnits="userSpaceOnUse"
       gradientTransform="matrix(21.687969,-35.672506,-35.672506,-21.687969,192.20987,-341.35935)"
       spreadMethod="pad"
       id="linearGradient111"><stop
         style="stop-opacity:1;stop-color:#f6ec1d"
         offset="0"
         id="stop109" /><stop
         style="stop-opacity:1;stop-color:#39b54a"
         offset="0.8157738"
         id="stop110" /><stop
         style="stop-opacity:1;stop-color:#39b54a"
         offset="1"
         id="stop111" /></linearGradient><clipPath
       clipPathUnits="userSpaceOnUse"
       id="clipPath115"><path
         d="M 0,2834.646 H 2834.646 V 0 H 0 Z"
         transform="matrix(1.3333333,0,0,-1.3333333,0,3779.5333)"
         id="path115" /></clipPath><linearGradient
       x1="0"
       y1="0"
       x2="1"
       y2="0"
       gradientUnits="userSpaceOnUse"
       gradientTransform="matrix(20.026844,-67.690735,67.690735,20.026844,1023.198,1819.7507)"
       spreadMethod="pad"
       id="linearGradient114"><stop
         style="stop-opacity:1;stop-color:#8dc63f"
         offset="0"
         id="stop112" /><stop
         style="stop-opacity:1;stop-color:#8dc63f"
         offset="0.5032068"
         id="stop113" /><stop
         style="stop-opacity:1;stop-color:#009444"
         offset="1"
         id="stop114" /></linearGradient><clipPath
       clipPathUnits="userSpaceOnUse"
       id="clipPath118"><path
         d="M 0,2834.646 H 2834.646 V 0 H 0 Z"
         transform="matrix(1.3333333,0,0,-1.3333333,0,3779.5333)"
         id="path118" /></clipPath><linearGradient
       x1="0"
       y1="0"
       x2="1"
       y2="0"
       gradientUnits="userSpaceOnUse"
       gradientTransform="matrix(11.718109,-39.606609,39.606609,11.718109,1020.3818,1783.5654)"
       spreadMethod="pad"
       id="linearGradient117"><stop
         style="stop-opacity:1;stop-color:#8dc63f"
         offset="0"
         id="stop115" /><stop
         style="stop-opacity:1;stop-color:#8dc63f"
         offset="0.5032068"
         id="stop116" /><stop
         style="stop-opacity:1;stop-color:#009444"
         offset="1"
         id="stop117" /></linearGradient><clipPath
       clipPathUnits="userSpaceOnUse"
       id="clipPath120"><path
         d="M 0,2834.646 H 2834.646 V 0 H 0 Z"
         transform="translate(-949.84375,-1180.5977)"
         id="path120" /></clipPath><clipPath
       clipPathUnits="userSpaceOnUse"
       id="clipPath122"><path
         d="M 0,2834.646 H 2834.646 V 0 H 0 Z"
         transform="translate(-1058.124,-1158.4082)"
         id="path122" /></clipPath><clipPath
       clipPathUnits="userSpaceOnUse"
       id="clipPath124"><path
         d="M 0,2834.646 H 2834.646 V 0 H 0 Z"
         transform="translate(-1113.0952,-1213.0069)"
         id="path124" /></clipPath><clipPath
       clipPathUnits="userSpaceOnUse"
       id="clipPath126"><path
         d="M 0,2834.646 H 2834.646 V 0 H 0 Z"
         transform="translate(0,-2.5e-5)"
         id="path126" /></clipPath><clipPath
       clipPathUnits="userSpaceOnUse"
       id="clipPath128"><path
         d="M 0,2834.646 H 2834.646 V 0 H 0 Z"
         transform="translate(-1245.777,-1165.6816)"
         id="path128" /></clipPath><clipPath
       clipPathUnits="userSpaceOnUse"
       id="clipPath130"><path
         d="M 0,2834.646 H 2834.646 V 0 H 0 Z"
         transform="translate(0,-2.5e-5)"
         id="path130" /></clipPath><clipPath
       clipPathUnits="userSpaceOnUse"
       id="clipPath132"><path
         d="M 0,2834.646 H 2834.646 V 0 H 0 Z"
         transform="translate(-1389.5977,-1234.1836)"
         id="path132" /></clipPath><clipPath
       clipPathUnits="userSpaceOnUse"
       id="clipPath134"><path
         d="M 0,2834.646 H 2834.646 V 0 H 0 Z"
         transform="translate(-1452.9474,-1213.0069)"
         id="path134" /></clipPath><clipPath
       clipPathUnits="userSpaceOnUse"
       id="clipPath136"><path
         d="M 0,2834.646 H 2834.646 V 0 H 0 Z"
         transform="translate(-1567.8594,-1213.0069)"
         id="path136" /></clipPath><clipPath
       clipPathUnits="userSpaceOnUse"
       id="clipPath138"><path
         d="M 0,2834.646 H 2834.646 V 0 H 0 Z"
         transform="translate(-1654.9639,-1172.1271)"
         id="path138" /></clipPath><clipPath
       clipPathUnits="userSpaceOnUse"
       id="clipPath140"><path
         d="M 0,2834.646 H 2834.646 V 0 H 0 Z"
         transform="translate(-1713.2481,-1180.5977)"
         id="path140" /></clipPath><clipPath
       clipPathUnits="userSpaceOnUse"
       id="clipPath142"><path
         d="M 0,2834.646 H 2834.646 V 0 H 0 Z"
         transform="translate(0,-2.5e-5)"
         id="path142" /></clipPath><clipPath
       clipPathUnits="userSpaceOnUse"
       id="clipPath144"><path
         d="M 0,2834.646 H 2834.646 V 0 H 0 Z"
         transform="translate(-1863.1465,-1158.4082)"
         id="path144" /></clipPath><clipPath
       clipPathUnits="userSpaceOnUse"
       id="clipPath146"><path
         d="M 0,2834.646 H 2834.646 V 0 H 0 Z"
         transform="translate(-1931.2842,-1213.0069)"
         id="path146" /></clipPath><clipPath
       clipPathUnits="userSpaceOnUse"
       id="clipPath148"><path
         d="M 0,2834.646 H 2834.646 V 0 H 0 Z"
         transform="translate(-2018.3887,-1172.1271)"
         id="path148" /></clipPath><clipPath
       clipPathUnits="userSpaceOnUse"
       id="clipPath150"><path
         d="M 0,2834.646 H 2834.646 V 0 H 0 Z"
         transform="translate(-2129.4298,-1158.8692)"
         id="path150" /></clipPath><clipPath
       clipPathUnits="userSpaceOnUse"
       id="clipPath152"><path
         d="M 0,2834.646 H 2834.646 V 0 H 0 Z"
         transform="translate(-2230.713,-1213.0069)"
         id="path152" /></clipPath><clipPath
       clipPathUnits="userSpaceOnUse"
       id="clipPath154"><path
         d="M 0,2834.646 H 2834.646 V 0 H 0 Z"
         transform="translate(-2279.0557,-1158.4082)"
         id="path154" /></clipPath><clipPath
       clipPathUnits="userSpaceOnUse"
       id="clipPath156"><path
         d="M 0,2834.646 H 2834.646 V 0 H 0 Z"
         transform="translate(-2346.6406,-1180.4131)"
         id="path156" /></clipPath><clipPath
       clipPathUnits="userSpaceOnUse"
       id="clipPath158"><path
         d="M 0,2834.646 H 2834.646 V 0 H 0 Z"
         transform="translate(-2457.2218,-1213.0069)"
         id="path158" /></clipPath><clipPath
       clipPathUnits="userSpaceOnUse"
       id="clipPath160"><path
         d="M 0,2834.646 H 2834.646 V 0 H 0 Z"
         transform="translate(-2480.2441,-1165.6816)"
         id="path160" /></clipPath><clipPath
       clipPathUnits="userSpaceOnUse"
       id="clipPath162"><path
         d="M 0,2834.646 H 2834.646 V 0 H 0 Z"
         transform="translate(-2543.3175,-1213.0069)"
         id="path162" /></clipPath><clipPath
       clipPathUnits="userSpaceOnUse"
       id="clipPath164"><path
         d="M 0,2834.646 H 2834.646 V 0 H 0 Z"
         transform="translate(-2627.1982,-1172.1271)"
         id="path164" /></clipPath><clipPath
       clipPathUnits="userSpaceOnUse"
       id="clipPath166"><path
         d="M 0,2834.646 H 2834.646 V 0 H 0 Z"
         transform="translate(-2738.2393,-1158.8692)"
         id="path166" /></clipPath></defs><g
     inkscape:label="Capa 1"
     inkscape:groupmode="layer"
     id="layer1"
     transform="translate(329.87279,350.65151)" /><path
     id="path1"
     d="M 0,0 C 0.512,9.646 1.128,19.29 1.582,28.938 1.128,19.29 0.512,9.646 -0.001,0 -0.001,-4.031 0.26,-8.089 0.15,-12.108 0.26,-8.089 -0.001,-4.031 0,0"
     style="fill:#f9f9f9;fill-opacity:1;fill-rule:nonzero;stroke:none"
     transform="matrix(0.35277776,0,0,-0.35277776,759.677,32.830938)"
     clip-path="url(#clipPath2)" /><path
     id="path3"
     d="m 0,0 c -24.744,-0.421 -49.5,-0.133 -74.252,-0.154 -15.856,-0.013 -15.883,-0.069 -16.907,-17.809 6.116,-2.206 12.368,-4.743 18.794,-6.712 9.485,-2.907 15.321,-8.101 15.74,-18.896 0.887,-22.885 2.537,-45.739 3.619,-68.618 0.395,-8.351 0.064,-16.735 0.064,-26.32 -2.498,1.461 -3.28,1.672 -3.672,2.181 -33.407,43.462 -66.735,86.986 -100.271,130.348 -2.344,3.031 -6.193,6.908 -9.384,6.945 -19.335,0.229 -38.682,-0.821 -58.026,-0.839 -7.108,-0.006 -10.147,-2.904 -11.583,-9.5 -1.535,-7.055 1.127,-10.582 7.648,-12.695 14.896,-4.829 20.791,-14.984 20.513,-30.897 -0.743,-42.609 -0.605,-85.24 -0.154,-127.855 0.113,-10.787 -3.638,-15.925 -14.053,-18.955 -17.246,-5.019 -17.358,-6.432 -9.917,-23.784 28.353,0 57.008,-0.002 85.662,0.001 16.435,0.001 16.435,0.005 16.601,18.438 -8.587,2.774 -17.395,5.506 -26.123,8.472 -6.587,2.238 -10.766,6.11 -11.073,13.942 -1.038,26.469 -2.616,52.915 -3.867,79.376 -0.269,5.705 -0.039,11.433 -0.039,20.39 3.728,-4.38 5.407,-6.184 6.9,-8.132 30.318,-39.528 61.528,-78.423 90.373,-118.999 8.971,-12.62 17.85,-15.459 31.051,-13.057 1.057,0.192 2.095,0.5 3.157,0.667 19.348,3.048 18.979,3.053 19.42,22.471 1.212,53.381 2.935,106.75 4.008,160.133 0.175,8.67 3.323,13.374 11.536,15.273 2.767,0.639 5.32,2.189 8.081,2.876 6.316,1.57 10.003,4.307 8.525,11.887 C 10.946,-2.516 7.571,0.129 0,0"
     style="fill:#f9f9f9;fill-opacity:1;fill-rule:nonzero;stroke:none"
     transform="matrix(0.35277776,0,0,-0.35277776,433.91708,6.0475681)"
     clip-path="url(#clipPath4)" /><path
     id="path5"
     d="m 0,0 c -2.84,-3.573 -8.747,-6.213 -13.422,-6.521 -10.673,-0.707 -21.458,0.491 -32.198,0.544 -7.902,0.04 -12.083,2.795 -11.153,11.484 0.142,1.328 0.219,2.663 0.256,4.003 0.11,4.019 -0.151,8.077 -0.151,12.108 0.513,9.647 1.129,19.29 1.583,28.938 0.152,3.216 0.286,6.433 0.393,9.651 0.243,7.393 3.544,11.793 10.937,11.597 13.061,-0.345 26.219,-0.561 39.089,-2.484 C -0.332,68.672 5.04,63.774 6.876,59.502 15.856,38.616 14.44,18.175 0,0 m 87.883,-105.774 c -20.266,7.7 -27.583,26.281 -37.363,42.662 -8.569,14.35 -16.296,29.203 -23.99,43.1 10.303,8.574 20.255,15.23 28.194,23.76 C 81.646,32.673 72.497,75.3 35.983,90.244 24.927,94.769 12.554,98.183 0.73,98.349 c -40.844,0.576 -81.712,-0.557 -122.573,-0.932 -17.431,-0.161 -17.432,-0.043 -18.881,-17.869 2.776,-1.186 5.623,-2.692 8.646,-3.645 14.35,-4.524 20.082,-14.834 20.31,-29.217 0.176,-11.103 1.15,-22.204 1.042,-33.298 -0.32,-33.331 -0.965,-66.659 -1.557,-99.988 -0.143,-8.038 -3.609,-13.184 -12.122,-14.991 -5.794,-1.23 -11.26,-4.003 -16.641,-6 2.978,-22.162 2.296,-18.269 18.947,-18.38 27.625,-0.182 55.255,0.181 82.876,-0.214 6.754,-0.095 10.629,1.335 12.082,8.437 1.437,7.018 0.204,11.635 -7.351,13.811 -14.885,4.29 -21.153,14.629 -20.469,29.868 0.206,4.608 -0.852,9.259 -1.103,13.903 -1.33,24.493 -1.283,23.895 22.622,24.739 9.916,0.351 14.963,-3.198 18.855,-11.696 11.039,-24.092 22.458,-48.014 34.152,-71.794 1.589,-3.231 5.547,-7.426 8.508,-7.507 17.914,-0.49 35.869,-0.179 53.78,0.595 2.66,0.114 6.859,3.762 7.347,6.342 0.854,4.517 0.701,12.945 -1.317,13.713"
     style="fill:#f9f9f9;fill-opacity:1;fill-rule:nonzero;stroke:none"
     transform="matrix(0.35277776,0,0,-0.35277776,779.66785,40.457368)"
     clip-path="url(#clipPath6)" /><path
     id="path7"
     d="m 0,0 c -1.312,-4.856 -6.028,-9.901 -10.533,-12.609 -30.893,-18.578 -71.105,-6.716 -85.243,26.364 -17.208,40.262 -13.566,80.338 6.196,119.071 1.559,3.054 4.108,6.16 7.005,7.885 21.452,12.774 66.059,14.587 82.45,-21.286 0,0 11.563027,-50.463385 13.822,-60.322 C 15.955973,49.244385 5.272,19.51 0,0 m -2.128,176.671 c -27.1,7.821 -54.493,7.87 -81.421,-1.356 -80.76,-27.667 -100.711,-117.487 -68.346,-176.1 24.092,-43.628 73.843,-58.782 124.416,-49.696 61.083,10.973 98.201,58.734 98.215,121.634 0.013,53.408 -26.348,92.094 -72.864,105.518"
     style="fill:#f9f9f9;fill-opacity:1;fill-rule:nonzero;stroke:none"
     transform="matrix(0.35277776,0,0,-0.35277776,314.15314,68.211738)"
     clip-path="url(#clipPath8)"
     sodipodi:nodetypes="cccccczccccccc" /><path
     id="path9"
     d="m 0,0 c -1.404,-5.14 -6.469,-10.499 -11.283,-13.287 -31.334,-18.147 -70.906,-5.823 -84.884,27.51 -16.767,39.981 -13.133,79.707 6.386,118.097 1.557,3.065 4.041,6.19 6.911,7.972 20.471,12.72 64.925,14.586 81.547,-18.982 C 14.26365,89.83013 13.932748,92.272282 13.618,59.119 9.5536694,22.450867 5.329,19.49 0,0 m -2.171,176.401 c -27.102,7.828 -54.486,7.87 -81.423,-1.344 -80.687,-27.599 -100.781,-117.382 -68.388,-176.077 24.11,-43.685 73.839,-58.787 124.402,-49.735 61.067,10.933 98.196,58.681 98.241,121.617 0.038,53.4 -26.329,92.11 -72.832,105.539"
     style="fill:#f9f9f9;fill-opacity:1;fill-rule:nonzero;stroke:none"
     transform="matrix(0.35277776,0,0,-0.35277776,691.66707,68.119048)"
     clip-path="url(#clipPath10)"
     sodipodi:nodetypes="csccccccccccsc" /><path
     id="path11"
     d="m 0,0 c 10.029,28.136 19.272,54.067 28.516,79.998 1.322,0.067 2.643,0.135 3.964,0.203 C 42.257,53.661 52.034,27.12 62.023,0 Z m 158.93,-72.884 c -9.451,3.246 -15.504,8.33 -19.148,18.038 -22.23,59.228 -45.054,118.231 -67.472,177.387 -1.918,5.06 -4.225,7.71 -9.933,7.08 C 49.594,128.209 36.792,126.45 23.964,126.109 14.31,125.853 10.765,120.988 7.532,112.754 -13.367,59.512 -35.122,6.604 -55.892,-46.688 c -5.456,-14 -13.572,-24.125 -28.051,-28.216 -8.668,-2.45 -6.799,-7.963 -5.771,-14.179 1.124,-6.794 4.679,-8.412 11.095,-8.333 25.089,0.31 50.183,0.124 75.277,0.124 17.942,0.001 17.985,0.045 18.217,18.771 -11.451,4.225 -23.034,8.499 -34.985,12.908 3.125,10.205 5.344,19.273 8.82,27.831 1.244,3.066 5.417,6.828 8.431,6.991 22.876,1.235 45.794,1.766 68.706,2.168 2.334,0.041 6.138,-1.661 6.831,-3.481 4.526,-11.875 8.381,-24.004 12.655,-36.641 -8.028,-2.943 -15.169,-4.6 -21.16,-8.18 -2.826,-1.688 -4.843,-7.117 -4.709,-10.759 0.162,-4.379 0.725,-9.832 8.391,-9.752 34.013,0.357 68.032,0.155 102.541,0.155 5.323,18.178 5.461,18.583 -11.466,24.397"
     style="fill:#f9f9f9;fill-opacity:1;fill-rule:nonzero;stroke:none"
     transform="matrix(0.35277776,0,0,-0.35277776,478.72707,50.592128)"
     clip-path="url(#clipPath12)" /><path
     id="path13"
     d="m 0,0 c 22.352,-15.525 48.335,-20.643 76.054,-20.635 25.573,-0.178 50.053,4.374 73.211,15.141 C 126.107,-16.261 101.626,-20.812 76.051,-20.622 48.335,-20.641 22.352,-15.525 0,0"
     style="fill:#f9f9f9;fill-opacity:1;fill-rule:nonzero;stroke:none"
     transform="matrix(0.35277776,0,0,-0.35277776,183.0707,79.488198)"
     clip-path="url(#clipPath14)" /><path
     id="path15"
     d="m 0,0 c -49.48,22.167 -99.463,27.086 -148.151,-1.794 -73.528,-43.613 -70.444,-142.75 -25.382,-184.841 3.878,-3.623 7.892,-6.854 12.032,-9.729 22.352,-15.526 48.335,-20.641 76.051,-20.622 25.575,-0.191 50.056,4.361 73.214,15.128 1.545,0.717 3.082,1.462 4.614,2.236 7.401,3.737 12.048,9.027 12.133,17.393 0.126,12.547 0.145,25.117 -0.54,37.635 -0.132,2.395 -3.431,6.214 -5.772,6.646 -29.17,5.385 -29.371,5.141 -38.454,-22.597 -1,-3.055 -1.572,-6.501 -3.411,-8.97 -2.584,-3.468 -5.639,-7.609 -9.405,-9.014 -35.208,-13.133 -72.267,3.493 -84.839,38.911 -12.486,35.178 -8.163,69.475 8.012,102.892 6.836,14.125 18.127,19.56 32.471,20.65 7.486,0.569 15.085,0.555 22.573,0.003 21.123,-1.559 28.199,-7.576 33.403,-27.737 1.518,-5.881 2.401,-11.944 4.227,-17.717 0.714,-2.257 3.078,-5.452 4.942,-5.633 8.542,-0.825 17.187,-1.073 25.76,-0.709 1.884,0.08 4.74,3.246 5.253,5.435 3.672,15.647 7.747,31.302 9.649,47.199 C 8.958,-10.407 4.379,-1.962 0,0"
     style="fill:#f9f9f9;fill-opacity:1;fill-rule:nonzero;stroke:none"
     transform="matrix(0.35277776,0,0,-0.35277776,240.04465,10.215278)"
     clip-path="url(#clipPath16)" /><path
     id="path17"
     d="m 0,0 c -5.695,-0.625 -11.439,-1.025 -17.166,-1.094 -48.401,-0.578 -96.804,-1.091 -145.206,-1.544 -16.165,-0.151 -16.166,-0.046 -18.37,-17.671 3.061,-1.335 6.221,-2.972 9.549,-4.118 12.663,-4.359 19.36,-13.224 19.391,-26.515 0.108,-44.783 0.008,-89.566 -0.123,-134.348 -0.025,-8.721 -3.411,-14.75 -13.032,-16.544 -5.469,-1.02 -10.599,-3.847 -16.436,-6.071 4.387,-19.964 -0.249,-18.108 21.354,-18.15 30.851,-0.06 61.719,0.561 92.543,-0.346 9.9,-0.292 12.223,4.063 13.669,11.849 1.689,9.094 -5.678,8.338 -10.6,10.122 -3.689,1.338 -7.566,2.157 -11.35,3.24 -10.19,2.917 -16.852,8.419 -17.323,20.166 -0.457,11.415 -2.016,22.796 -3.342,34.165 -1.018,8.732 2.977,11.486 11.199,10.912 13.221,-0.923 26.47,-1.633 39.718,-1.896 20.471,-0.406 20.475,-0.215 23.422,19.887 1.226,8.358 -3.705,13.333 -12.269,12.706 -17.149,-1.255 -34.328,-2.119 -51.454,-3.613 -7.901,-0.69 -11.115,1.835 -10.733,10.045 0.987,21.114 1.608,42.249 2.048,63.382 0.14,6.702 3.453,8.771 9.437,8.584 12.869,-0.401 25.795,-1.622 38.595,-0.836 12.794,0.784 17.313,-4.647 19.642,-16.604 4.983,-25.586 5.627,-25.477 32.013,-24.658 1.703,0.053 3.389,0.625 5.693,1.075 3.087,15.616 6.198,31.022 9.165,46.456 C 22.757,-7.249 14.354,1.575 0,0"
     style="fill:#f9f9f9;fill-opacity:1;fill-rule:nonzero;stroke:none"
     transform="matrix(0.35277776,0,0,-0.35277776,617.49415,5.1620081)"
     clip-path="url(#clipPath18)" /><g
     id="g2"
     transform="matrix(0.4299075,0,0,0.4299075,46.595048,211.79566)"
     style="stroke-width:2.32608"><path
       id="path20"
       d="m 80.298925,-477.38439 c 0,0 -0.648053,22.65257 6.008864,31.45472 v 0 c 0,0 7.090127,8.16081 10.525477,9.44739 v 0 -8.37071 c 0,0 -4.938183,-3.01413 -7.514519,-17.82903 v 0 l -0.648406,-9.55075 -0.214136,-7.08625 c 0,0 -0.0042,-4.08093 -4.08305,-4.08093 v 0 c -4.07423,0 -4.07423,3.86609 -4.07423,6.01556"
       style="fill:url(#linearGradient20);stroke:none;stroke-width:0.82059" /><path
       id="path23"
       d="m 112.65111,-462.28409 -0.24235,8.11001 -0.74507,21.62669 c -2.94675,16.95661 -8.59402,20.39902 -8.59402,20.39902 v 0 9.58497 h 3.5e-4 c 3.92818,-1.47638 12.03502,-10.81299 12.03502,-10.81299 v 0 c 7.61753,-10.07428 6.88022,-46.69472 6.88022,-46.69472 v 0 c 0,-2.45675 0,-6.87741 -4.66407,-6.87741 v 0 c -4.66725,0 -4.67008,4.66443 -4.67008,4.66443"
       style="fill:url(#linearGradient23);stroke:none;stroke-width:0.82059" /><path
       id="path26"
       d="m 77.613228,-431.01528 c 0,0 -0.732014,36.61904 6.886927,46.69084 v 0 c 0,0 8.10648,9.33627 12.036425,10.81194 v 0 h 3.52e-4 v -9.58357 c 0,0 -5.646913,-3.44205 -8.59931,-20.3969 v 0 l -0.737659,-21.63022 -0.244475,-8.1033 c 0,0 -0.0063,-4.67289 -4.671483,-4.67289 v 0 c -4.670777,0 -4.670777,4.42418 -4.670777,6.8841"
       style="fill:url(#linearGradient26);stroke:none;stroke-width:0.82059" /><path
       id="path29"
       d="m 92.466583,-485.77344 v 118.71747 l 7.279216,14.72989 6.482291,-13.0676 v -120.37976 c 0,-3.80189 -3.0861,-6.88058 -6.885516,-6.88058 v 0 c -3.797653,0 -6.875991,3.07869 -6.875991,6.88058"
       style="fill:url(#linearGradient29);stroke:none;stroke-width:0.82059" /><path
       id="path30"
       d="M 0,0 C 113.045,13.147 1030.362,45.428 888.414,-623.592 Z"
       style="fill:#be202e;fill-opacity:1;fill-rule:nonzero;stroke:none;stroke-width:2.32608"
       transform="matrix(0.35277776,0,0,-0.35277776,-148.74013,-370.75288)"
       clip-path="url(#clipPath31)" /><path
       id="path32"
       d="M 0,0 C 10.435,-99.947 178.352,-893.965 888.414,-623.592 Z"
       style="fill:#be202e;fill-opacity:1;fill-rule:nonzero;stroke:none;stroke-width:2.32608"
       transform="matrix(0.35277776,0,0,-0.35277776,-148.74013,-370.75288)"
       clip-path="url(#clipPath33)" /><g
       id="g41"
       clip-path="url(#clipPath41)"
       transform="matrix(0.26458333,0,0,0.26458333,-163.38196,-730.79915)"
       style="stroke-width:2.32608"><g
         clip-path="url(#clipPath35)"
         id="g39"
         style="stroke-width:2.32608"><path
           d="m 34.749,1928.398 c -72.728,0 -127.278,-3.629 -152.413,-6.56 v 0 l 1202.435,-844.026 c 160.62,756.708 -680.052,850.579 -1049.995,850.586 v 0 c -0.023,0 -0.004,0 -0.027,0"
           transform="matrix(1.3333333,0,0,-1.3333333,0,3779.5333)"
           style="fill:url(#linearGradient35);stroke:none;stroke-width:2.32608"
           id="path39" /></g><g
         clip-path="url(#clipPath38)"
         id="g40"
         style="stroke-width:2.32608"><path
           d="M -117.664,1921.838 C -105.59,1806.144 62.54,1003.003 712.493,1002.281 v 0 h 1.76 c 109.392,0.109 232.336,22.928 370.518,75.531 v 0 z"
           transform="matrix(1.3333333,0,0,-1.3333333,0,3779.5333)"
           style="fill:url(#linearGradient38);stroke:none;stroke-width:2.32608"
           id="path40" /></g></g><path
       id="path64"
       d="M 0,0 C 105.877,-13.366 943.434,-188.722 622.445,-761.171 Z"
       style="fill:#be202e;fill-opacity:1;fill-rule:nonzero;stroke:none;stroke-width:2.32608"
       transform="matrix(0.35277776,0,0,-0.35277776,-36.568686,-427.2731)"
       clip-path="url(#clipPath65)" /><path
       id="path66"
       d="M 0,0 C -19.342,-92.588 -96.482,-846.941 622.445,-761.171 Z"
       style="fill:#be202e;fill-opacity:1;fill-rule:nonzero;stroke:none;stroke-width:2.32608"
       transform="matrix(0.35277776,0,0,-0.35277776,-36.568686,-427.2731)"
       clip-path="url(#clipPath67)" /><g
       id="g69"
       clip-path="url(#clipPath70)"
       transform="matrix(0.26458333,0,0,0.26458333,-163.38196,-730.79915)"
       style="stroke-width:2.32608"><path
         d="m 246.827,2107.016 842.524,-1030.091 c 434.453,774.73 -699.219,1012.076 -842.523,1030.092 v 0 z"
         transform="matrix(1.3333333,0,0,-1.3333333,0,3779.5333)"
         style="fill:url(#linearGradient69);stroke:none;stroke-width:2.32608"
         id="path69" /></g><g
       id="g72"
       clip-path="url(#clipPath73)"
       transform="matrix(0.26458333,0,0,0.26458333,-163.38196,-730.79915)"
       style="stroke-width:2.32608"><path
         d="m 940.71,1067.746 h 2.487 c 45.812,0.05 94.426,3.007 146.154,9.179 v 0 L 246.827,2107.017 C 222.076,1988.603 127.493,1068.764 940.71,1067.746"
         transform="matrix(1.3333333,0,0,-1.3333333,0,3779.5333)"
         style="fill:url(#linearGradient72);stroke:none;stroke-width:2.32608"
         id="path72" /></g><g
       id="g77"
       clip-path="url(#clipPath78)"
       transform="matrix(0.26458333,0,0,0.26458333,-163.38196,-730.79915)"
       style="stroke-width:2.32608"><path
         d="M 0,0 C 77.774,-64.524 647.994,-632.042 10.964,-937.564 Z"
         style="fill:#be202e;fill-opacity:1;fill-rule:nonzero;stroke:none;stroke-width:2.32608"
         transform="matrix(1.3333333,0,0,-1.3333333,1425.1992,941.64267)"
         clip-path="url(#clipPath74)"
         id="path76" /><path
         d="M 0,0 C -76.407,-65.896 -633.083,-643.649 10.964,-937.564 Z"
         style="fill:#be202e;fill-opacity:1;fill-rule:nonzero;stroke:none;stroke-width:2.32608"
         transform="matrix(1.3333333,0,0,-1.3333333,1425.1992,941.64267)"
         clip-path="url(#clipPath75)"
         id="path77" /></g><path
       id="path79"
       d="m 0,0 c -1.332,-17.913 -7.4,-72.109 -27.633,-98.562 -18.398,-24.046 -54.711,-53.747 -96.264,-42.792 -28.164,10.427 -38.992,28.301 -47.644,47.635 -2.955,6.615 -6.78,33.906 -0.163,49.55 -16.346,-12.341 -24.855,-42.498 -25.003,-49.692 -0.209,1.107 -1.346,-28.068 4.241,-41.472 12.88,-30.851 33.782,-49.559 69.589,-57.238 41.127,-6.894 75.123,11.43 95.244,40.162 C 18.667,-86.259 0.447,-6.087 0,0"
       style="fill:#00c0f3;fill-opacity:1;fill-rule:nonzero;stroke:none;stroke-width:2.32608"
       transform="matrix(0.35277776,0,0,-0.35277776,86.990353,-286.51548)"
       clip-path="url(#clipPath80)" /><path
       id="path81"
       d="M 0,0 C 54.813,-92.727 173.352,-151.673 287.529,-138.102 218.568,-131.9 164.864,-105.514 122.478,-62.18 69.721,-51.814 36.931,-49.696 0,0"
       style="fill:#00c0f3;fill-opacity:1;fill-rule:nonzero;stroke:none;stroke-width:2.32608"
       transform="matrix(0.35277776,0,0,-0.35277776,-91.871259,-229.67674)"
       clip-path="url(#clipPath82)" /><path
       id="path84"
       d="m -106.71104,-364.40202 c 1.20933,4.04425 4.98334,1.47285 6.35494,4.29825 v 0 c 1.368781,2.82328 4.612573,3.0427 5.501573,2.82328 v 0 c 0.890058,-0.21414 3.849158,-1.72368 4.854574,1.3021 v 0 c 0.97402,3.02754 4.032603,2.35726 4.032603,2.35726 v 0 c 0,0 3.933472,-0.65405 6.48335,-1.75472 v 0 c 2.55658,-1.10807 6.359524,-0.32667 7.506405,2.28812 v 0 c 1.144411,2.5915 2.846211,0.78317 2.846211,0.78317 v 0 c 0,0 5.643386,-3.52813 6.195483,-3.93665 v 0 c 0.557741,-0.41099 3.166886,-3.22439 4.449938,-0.14041 v 0 c 1.294695,3.08822 4.610806,-1.09749 5.193595,-2.18193 v 0 c 0.595489,-1.10984 1.895475,-1.87113 2.862791,-0.90205 v 0 c 0.969081,0.96061 2.072217,-0.22613 2.072217,-0.22613 v 0 c 8.390466,-5.8353 15.409685,-26.64954 15.439671,-26.73844 v 0 0 z"
       style="fill:url(#linearGradient84);stroke:none;stroke-width:0.82059" /><path
       id="path87"
       d="m -62.405676,-399.38452 c -0.279753,1.33597 -1.787525,1.40406 -2.885722,0.8195 v 0 c -1.104547,-0.58455 -6.169378,-2.25037 -5.552017,1.03258 v 0 c 0.631473,3.27519 -3.091391,2.37702 -3.792713,2.34703 v 0 c -0.682625,-0.0307 -7.329311,0.11642 -7.329311,0.11642 v 0 c 0,0 -2.417233,-0.57467 -1.942042,2.22991 v 0 c 0.476956,2.8 -2.267302,5.55801 -5.012266,6.03779 v 0 c -2.737908,0.48436 -6.382808,2.1149 -6.382808,2.1149 v 0 c 0,0 -2.909006,1.11549 -2.073981,4.191 v 0 c 0.844198,3.07411 -2.453922,3.43782 -3.319284,3.74086 v 0 c -0.87101,0.30727 -3.45087,2.29305 -3.03707,5.40879 v 0 c 0.41981,3.09245 -4.27319,3.44558 -2.90477,6.96595 v 0 l 73.715032,-22.00946 c 0,0 -17.403938,-13.70718 -27.644723,-13.94177 v 0 c 0,0 -0.2159,-0.0554 -0.500945,-0.0554 v 0 c -0.483305,0 -1.164166,0.15769 -1.33738,1.00189"
       style="fill:url(#linearGradient87);stroke:none;stroke-width:0.82059" /><g
       id="g90"
       clip-path="url(#clipPath91)"
       transform="matrix(0.26458333,0,0,0.26458333,-163.38196,-730.79915)"
       style="stroke-width:2.32608"><path
         d="m 280.744,1870.535 c -0.849,-0.03 -1.995,-0.347 -2.292,-1.779 v 0 c -0.483,-2.332 -3.138,-2.464 -5.086,-1.438 v 0 c -1.916,1.016 -10.848,3.972 -9.73,-1.833 v 0 c 1.076,-5.767 -5.456,-4.179 -6.675,-4.11 v 0 c -1.221,0.065 -12.93,-0.233 -12.93,-0.233 v 0 c 0,0 -4.233,1.016 -3.384,-3.929 v 0 c 0.845,-4.891 -3.991,-9.743 -8.815,-10.591 v 0 c -4.839,-0.845 -11.251,-3.723 -11.251,-3.723 v 0 c 0,0 -5.117,-1.956 -3.638,-7.357 v 0 c 1.489,-5.423 -4.302,-6.063 -5.826,-6.589 v 0 c -1.541,-0.555 -6.074,-4.021 -5.346,-9.492 v 0 c 0.719,-5.465 -7.427,-6.106 -5.108,-12.208 v 0 l -0.126,-0.026 c 2.126,-7.137 8.756,-2.605 11.159,-7.545 v 0 c 2.431,-4.969 8.115,-5.383 9.682,-4.984 v 0 c 1.569,0.382 6.778,3.004 8.528,-2.3 v 0 c 1.75,-5.345 7.099,-4.134 7.099,-4.134 v 0 c 0,0 6.918,1.155 11.408,3.085 v 0 c 4.516,1.934 11.183,0.548 13.215,-3.999 v 0 c 0.816,-1.864 1.796,-2.44 2.67,-2.469 v 0 h 0.137 c 1.205,0.038 2.176,1.069 2.176,1.069 v 0 c 0,0 9.944,6.192 10.927,6.94 v 0 c 0.992,0.69 5.557,5.633 7.832,0.213 v 0 c 2.276,-5.416 8.081,1.94 9.142,3.841 v 0 c 1.041,1.936 3.32,3.287 5.022,1.579 v 0 c 1.693,-1.671 3.647,0.426 3.647,0.426 v 0 c 14.661,10.189 26.924,46.391 27.114,46.939 v 0 l 0.009,0.015 v 0.049 l -0.019,-0.026 c -0.483,0.371 -30.687,24.065 -48.576,24.529 v 0 c 0,0 -0.284,0.066 -0.687,0.08 v 0 z"
         transform="matrix(1.3333333,0,0,-1.3333333,0,3779.5333)"
         style="fill:url(#linearGradient90);stroke:none;stroke-width:2.32608"
         id="path90" /></g><path
       id="path93"
       d="m -22.216881,-423.10636 c 0,0 3.157361,3.74686 7.838722,11.2067 v 0 c 4.676069,7.45701 19.454635,12.12532 19.454635,12.12532 v 0 c 27.336043,10.32792 37.233223,4.76603 37.233223,4.76603 v 0 c 0.471664,-0.18274 0.916164,-0.3235 1.336675,-0.43039 v 0 c 2.123369,-0.98848 3.984272,-2.14242 3.984272,-2.14242 v 0 c -0.276225,-0.29598 -0.515761,-0.7934 -0.714728,-1.35396 v 0 C 19.68465,-409.49972 -8.4599595,-422.77122 -22.69807,-429.67931 v 0 c -2.847622,2.46803 0.481189,6.57295 0.481189,6.57295"
       style="fill:url(#linearGradient93);stroke:none;stroke-width:0.82059" /><path
       id="path96"
       d="m -14.920026,-431.53139 c -4.224866,0.005 -6.56978,0.76164 -7.787922,1.81927 v 0 c 14.2134163,6.89575 42.276182,20.1235 69.451711,30.68073 v 0 c -0.394406,-1.17334 -0.620889,-2.48744 -0.651581,-2.72168 v 0 c -4.12503,-13.12227 -13.252802,-18.44499 -23.076604,-24.49759 v 0 c -10.084152,-6.21277 -21.0276713,-5.56543 -22.31425182,-5.71218 v 0 c -0.15063611,-0.0162 -0.28645555,-0.0233 -0.43038887,-0.0233 v 0 c -1.09678606,0 -2.71885821,0.4392 -15.19096331,0.45473"
       style="fill:url(#linearGradient96);stroke:none;stroke-width:0.82059" /><g
       id="g99"
       clip-path="url(#clipPath100)"
       transform="matrix(0.26458333,0,0,0.26458333,-163.38196,-730.79915)"
       style="stroke-width:2.32608"><path
         d="m 475.265,1955.554 c -8.313,0 -12.908,-1.487 -15.292,-3.553 v 0 c 39.779,-18.298 88.412,-39.668 136.086,-58.153 v 0 c -0.59,1.564 -1.049,3.261 -1.407,4.761 v 0 c -0.143,0.191 -0.25,0.338 -0.25,0.338 v 0 c -7.758,27.322 -24.768,34.013 -44.568,46.229 v 0 c -19.803,12.23 -41.321,10.97 -43.863,11.239 v 0 c -0.295,0.034 -0.562,0.049 -0.847,0.049 v 0 c -2.154,10e-4 -5.345,-0.875 -29.859,-0.91"
         transform="matrix(1.3333333,0,0,-1.3333333,0,3779.5333)"
         style="fill:url(#linearGradient99);stroke:none;stroke-width:2.32608"
         id="path99" /></g><g
       id="g102"
       clip-path="url(#clipPath103)"
       transform="matrix(0.26458333,0,0,0.26458333,-163.38196,-730.79915)"
       style="stroke-width:2.32608"><path
         d="m 457.819,1947.099 v -0.303 c 0.078,-3.979 3.215,-7.841 3.215,-7.841 v 0 c 0,0 6.209,-7.362 15.39,-22.038 v 0 c 9.211,-14.634 38.264,-23.816 38.264,-23.816 v 0 c 25.755,-9.749 43.164,-12.318 54.304,-12.359 v 0 h 0.542 c 5.991,0.021 10.11,0.779 12.702,1.507 v 0 c 0.298,0.093 0.511,0.171 0.765,0.258 v 0 c 7.379,2.943 15.024,7.708 15.024,7.708 v 0 c -0.733,0.753 -1.382,2.066 -1.939,3.528 v 0 c -47.653,18.478 -96.236,39.83 -136.001,58.11 v 0 c -1.63,-1.403 -2.232,-3.08 -2.266,-4.754"
         transform="matrix(1.3333333,0,0,-1.3333333,0,3779.5333)"
         style="fill:url(#linearGradient102);stroke:none;stroke-width:2.32608"
         id="path102" /></g><path
       id="path105"
       d="m 188.19706,-428.72364 c 0.084,-0.004 0.16792,0.0392 0.20179,0.14535 v 0 c -0.39405,-0.0409 -0.73836,0.24095 -1.06645,0.52211 v 0 c -0.3429,0.29457 -0.67027,0.59126 -1.01847,0.51082 v 0 c 5.09694,-5.21299 12.61216,-9.44421 15.3984,-15.90604 v 0 c -0.82656,1.61572 -1.69369,2.45498 -3.13937,4.25062 v 0 c -5.10505,4.79389 -10.5223,9.53558 -15.36735,14.20071 v 0 c -1.13242,1.0982 -6.33307,4.4958 -7.1053,6.0318 v 0 c 0.005,0.0131 0.0102,0.0258 0.0134,0.0374 v 0 c -0.0148,0.0102 -0.0303,0.0226 -0.0459,0.0328 v 0 c 0.01,-0.0226 0.0208,-0.0466 0.0325,-0.0702 v 0 c -0.005,-0.0138 -0.01,-0.0279 -0.0169,-0.0434 v 0 c -0.92922,0.10336 -1.50425,0.86465 -1.88172,1.2767 v 0 c 0.0914,-0.0706 0.0787,-0.0568 -0.1337,0.13652 v 0 c -0.007,0.006 -0.0138,0.0123 -0.0205,0.0194 v 0 c 0.007,-0.007 0.0138,-0.0138 0.0205,-0.0194 v 0 c 0.0409,-0.0392 0.0857,-0.0854 0.1337,-0.13652 v 0 c -0.0804,0.0593 -0.242,0.18662 -0.4191,0.3115 v 0 c -0.26035,0.18627 -0.55315,0.37077 -0.67592,0.35137 v 0 c -2.68923,3.2512 -7.5244,5.81625 -10.32439,9.21879 v 0 c 0.0536,-0.0293 0.10477,-0.0603 0.15839,-0.0889 v 0 c -0.0621,0.0822 -0.12911,0.16757 -0.19932,0.25364 v 0 c 2.28001,-1.3469 5.50087,-5.11139 9.22655,-7.18537 v 0 c -0.57114,0.36195 -0.76976,0.99095 -1.24812,1.46085 v 0 c -2.48427,2.41441 -7.86307,6.37787 -9.14577,8.75771 v 0 c 2.51425,-2.28847 7.49335,-4.75756 9.36907,-4.98511 v 0 c -3.07587,2.16641 -13.48987,8.81486 -15.56385,9.12919 v 0 c 1.67076,-1.29752 4.05695,-3.96417 4.45982,-4.25979 v 0 c 0.018,-0.007 1.8789,-1.66018 2.9023,-2.91748 v 0 c -0.0561,0.0342 -0.11289,0.0674 -0.16968,0.097 v 0 c 0.0684,-0.0885 0.13864,-0.17639 0.21061,-0.26176 v 0 c -2.56364,1.43721 -4.49192,2.9658 -6.41174,5.20276 v 0 c -0.008,0.0134 -1.9364,1.67182 -3.41559,1.81575 v 0 c 0,-0.18979 0.0882,-0.16228 0.1785,-0.13476 v 0 c 0.0833,0.0254 0.16828,0.0515 0.1845,-0.10442 v 0 c -0.76235,-0.66922 -1.14652,1.14229 -0.84631,1.29116 v 0 c 0.0346,-0.18485 0.50588,-0.24024 0.58843,-0.0639 v 0 c -0.11324,0.71579 -1.19521,0.45332 -0.3055,0.83467 v 0 c 1.21285,0.39758 0.74859,1.07668 0.76376,1.51236 v 0 c 0.59161,-0.31256 0.61948,0.0924 0.64312,0.49742 v 0 c 0.024,0.3623 0.0445,0.72707 0.47483,0.5715 v 0 c 0.19756,-0.38947 0.90947,-0.62971 1.25484,-1.33315 v 0 c 2.25036,0.81668 5.02708,0.53305 6.95466,1.30881 v 0 c 0.64346,0.31891 26.22444,4.05482 41.28099,3.07551 v 0 c 6.23253,-0.4064 13.23128,-1.57621 18.10914,-2.42711 v 0 c -1.34267,-0.34607 -3.04271,-0.24377 -4.74451,-0.14252 v 0 c -1.1938,0.0734 -2.38724,0.14605 -3.45616,0.0621 v 0 c 5.25745,-0.5073 9.03429,-0.34996 14.22188,-1.39453 v 0 c -4.52331,-0.0773 -8.80004,0.25047 -12.99245,0.57608 v 0 c -4.52543,0.3556 -8.95138,0.71015 -13.48211,0.55034 v 0 c 5.59506,-0.31151 12.60793,-0.41134 18.16665,-2.19181 v 0 c -2.86915,0.23707 -6.31085,0.65193 -9.10661,0.91616 v 0 c 1.6951,-0.29492 2.98838,-0.51329 4.10986,-0.95744 v 0 c 0.85408,-0.33725 0.12206,-0.25682 -0.39758,-0.1785 v 0 c -0.22472,0.0346 -0.40816,0.0688 -0.40993,0.0709 v 0 c -5.25074,0.34819 -13.38827,2.48144 -17.04375,1.3088 v 0 c 2.59186,-0.036 5.08106,-1.17828 7.81297,-1.67746 v 0 c 3.35527,-0.60748 6.73629,-0.56797 9.81922,-0.52881 v 0 c 1.36666,0.0166 2.6737,0.0346 3.89643,-0.005 v 0 c -2.64125,-0.58913 -6.78357,-0.73483 -9.74619,-0.50694 v 0 c 1.39841,-0.2607 3.90137,-0.62547 4.94735,-1.35114 v 0 c -1.66758,-0.2353 -3.73309,0.26529 -5.88045,0.76835 v 0 c -2.74391,0.63959 -5.62469,1.28129 -7.97278,0.37924 v 0 c 4.27814,-1.57304 14.52598,-1.77236 17.53411,-4.49933 v 0 c -1.82491,0.80046 -6.35846,2.12478 -8.41551,2.08033 v 0 c 0.97614,-0.58102 1.83938,-1.44533 2.18158,-1.77517 v 0 c -5.55061,3.36056 -17.35526,3.67241 -19.95699,3.56411 v 0 c 6.34471,-2.35162 14.11852,-4.67889 22.31072,-4.87468 v 0 c -0.65687,-0.381 -2.29834,-0.381 -3.79941,-0.381 v 0 c -1.04246,0 -2.01507,0 -2.54353,-0.1263 v 0 c 4.46511,-1.95262 10.57698,-2.56787 15.96037,-3.78248 v 0 c -4.48628,-0.44309 -28.26244,3.54365 -38.7731,6.04308 v 0 c 8.38165,-3.18558 19.30682,-5.05883 28.84064,-7.3279 v 0 c -5.09834,0.34749 -9.65658,0.75107 -14.00422,2.09832 v 0 c 4.29542,-2.08139 9.36766,-3.82975 14.19966,-5.71394 v 0 c -1.68451,0.0903 -3.17394,0.65299 -4.27355,0.90523 v 0 c 1.9625,-1.17369 4.23757,-2.19181 5.9817,-3.49603 v 0 c -5.88539,2.36891 -11.65013,5.56684 -18.80305,6.89434 v 0 c -3.2258,0.60678 -5.71712,1.41358 -8.58908,1.77059 v 0 c 6.10975,-1.45027 20.562,-7.40586 25.88259,-8.91046 v 0 c -1.62807,-0.0988 -8.95067,2.08985 -11.75138,3.2392 v 0 c 2.70616,-2.0193 8.20879,-3.69711 11.72951,-4.97275 v 0 c -5.93866,0.3115 -11.83569,3.51966 -16.92733,4.8454 v 0 c 0.48224,-1.88877 14.71259,-4.62738 17.04833,-8.30192 v 0 c -2.73049,1.76636 -13.31524,5.97041 -14.84347,5.98276 v 0 c 0.19438,-0.98284 6.76451,-2.68111 8.27616,-4.82882 v 0 c -6.078,2.70863 -11.55488,5.82224 -18.6129,7.65633 v 0 c 3.56376,-1.76247 7.26263,-3.41559 10.58827,-5.38621 v 0 c -0.36865,-0.0621 -0.83291,-0.004 -1.03399,-0.28187 v 0 c 1.0735,-0.0392 2.82822,-0.19896 4.62209,-1.50742 v 0 c -0.56021,0.0219 -1.33456,0.3175 -1.42275,-0.24341 v 0 c 0.83114,-0.37818 7.372,-3.55071 13.38756,-7.08942 v 0 c -1.73884,0.0459 -2.58163,0.81068 -3.85656,1.22625 v 0 c 0.79657,-0.92286 1.26188,-1.09961 1.22907,-1.53352 v 0 c -3.72039,2.35338 -8.34742,4.95053 -12.69153,6.20783 v 0 c 4.20511,-2.43946 6.84354,-6.14433 10.79923,-8.79687 v 0 c -0.33796,0.0505 -0.95885,0.53023 -1.07032,0.29563 v 0 c 0.13934,-0.25188 1.07597,-1.19274 0.92145,-1.67076 v 0 c -2.13924,3.89044 -10.22032,6.37364 -15.23471,8.49771 v 0 c 1.32433,-1.07032 2.22321,-1.72508 2.9591,-2.13712 v 0 c 1.49472,-0.82021 4.20335,-2.78589 6.94867,-3.96946 v 0 c -0.39194,-0.0533 -0.71508,0.11818 -1.01001,0.2914 v 0 c -0.39475,0.23036 -0.73871,0.46002 -1.13171,0.14746 v 0 c 2.74602,-1.93464 5.85717,-3.57823 8.12059,-5.9055 v 0 c -2.77742,1.55786 -4.92548,3.61385 -7.82073,5.07224 v 0 c 0.48507,-0.80998 1.59562,-1.12395 1.75155,-2.19781 v 0 c -6.68303,3.70734 -17.02153,11.87238 -16.83244,12.07735 v 0 c -0.98672,0.60254 -3.31611,2.3061 -3.61456,1.60619 v 0 c -0.29634,0.21908 -3.92148,2.74426 -5.85082,3.04659 v 0 c 7.12752,-5.7531 15.90957,-11.1259 21.18783,-17.7486 v 0 c -3.54718,2.66312 -6.67808,5.68466 -10.25278,8.33614 v 0 c -0.0201,-0.45473 1.10666,-0.89359 0.46179,-1.25025 v 0 c -1.24707,1.99637 -4.55437,3.10974 -5.24087,4.98158 v 0 c 0.0212,-0.24871 0.26458,-0.43921 -0.23813,-0.37077 v 0 c -0.41028,0.32879 0.30339,0.45297 -0.1337,0.62124 v 0 c -3.90243,2.5012 -10.08944,8.17457 -14.484,9.8044 v 0 c 1.82175,-1.29469 3.95182,-2.4959 4.95336,-3.95252 v 0 c 0.0487,0.22225 -0.24871,0.3436 0.0377,0.39899 v 0 c 0.90135,-1.25342 5.62681,-4.95406 7.35189,-6.5793 v 0 c -0.018,0.0723 0.012,0.13264 0.12947,0.14393 v 0 c 0.0427,-0.15028 0.0921,-0.28787 0.1457,-0.41099 v 0 c -0.0811,0.0822 -0.17357,0.17181 -0.27517,0.26706 v 0 c 0.0261,-0.10055 0.15205,-0.22508 0.27588,-0.26847 v 0 c -7.1e-4,3.5e-4 -7.1e-4,0 -7.1e-4,0 v 0 c 0.001,0 0.001,-0.004 0.003,-0.004 v 0 c -7e-4,0 -0.001,3.6e-4 -0.001,3.6e-4 v 0 c 0.49777,-1.14265 1.38148,-1.16593 1.77095,-1.9939 v 0 c 0.11888,0.32596 -0.22931,0.53516 0.0656,0.58843 v 0 c 0.47625,-0.76518 1.49755,-1.08268 2.00167,-1.8161 v 0 c -0.73555,0.13123 -1.42205,1.24531 -1.89054,1.00647 v 0 c 6.09847,-6.37046 15.38534,-11.47833 19.97992,-19.61656 v 0 c -4.58823,5.48711 -11.9828,11.56723 -16.03763,15.40722 m 14.16191,-1.8168 c 0.8509,-0.1457 -0.19226,0.62829 -0.51682,0.65934 v 0 c 0.93557,0.12453 -2.69804,2.10467 -4.42912,3.29141 v 0 c -2.26237,1.55364 -5.30684,2.81834 -7.45279,4.83376 v 0 c -0.45967,0.42898 -0.5027,0.77858 -1.49577,0.96027 v 0 c 0.28645,-0.37148 0.68262,-0.65652 1.0996,-0.91934 v 0 c -0.242,-0.51612 -0.66039,0.2801 -0.95567,0.30727 v 0 c 3.83222,-2.92136 9.43963,-5.99193 13.75057,-9.13271 m 3.24379,2.23872 c -0.96061,1.86973 -3.96945,3.16124 -4.72969,4.12186 v 0 c -0.29351,-0.0494 0,-0.17674 -0.0395,-0.393 v 0 c -0.79904,0.26282 -3.00708,1.71203 -3.8167,1.96921 v 0 c 2.00342,-1.81257 5.94254,-4.40302 8.5859,-5.69807 m -30.45953,9.7977 c 0.34466,-0.12136 1.14723,0.11677 0.97049,-0.42686 v 0 c 2.45145,-1.74272 8.09201,-6.36729 10.02629,-8.39188 v 0 c -0.34325,0.96414 -1.76459,1.68452 -1.73037,2.39148 v 0 c -3.81459,2.70016 -7.81368,6.81673 -12.09499,9.74302 v 0 c 0.55951,-1.51307 3.37009,-2.46486 2.82858,-3.31576 m 23.38175,-7.01181 c -1.45097,1.47143 -4.78543,3.00813 -7.53851,4.04107 v 0 c 2.81411,-2.45639 3.83999,-2.24367 7.53851,-4.04107 m -7.64293,4.85105 c -0.95567,0.73377 -1.85631,1.50953 -3.18029,1.95156 v 0 c 0.74754,-0.90029 1.90006,-1.4799 3.18029,-1.95156 m -7.34271,2.39606 c -0.61348,1.11478 -2.28318,1.39453 -3.06106,2.39148 v 0 c -0.37429,-0.0639 0.0663,-0.33478 -0.0829,-0.76023 v 0 c 0.70168,0.48895 1.06539,-0.68439 1.96603,-0.73413 v 0 c -0.31009,-0.48895 -0.29527,-0.42016 -0.0155,-0.35137 v 0 c 0.11994,0.0289 0.28681,0.0572 0.496,0.0423 v 0 c 0.0279,-0.22048 -0.13088,-0.22966 -0.29351,-0.21731 v 0 c 0.0945,-0.20814 0.1958,-0.20108 0.34784,-0.19191 v 0 c 0.0296,0.004 0.0607,0.004 0.0935,0.004 v 0 c 0.13688,0 0.31185,-0.0247 0.54963,-0.18062 m -0.76095,1.90747 c -1.29681,1.44991 -2.90406,2.24507 -4.45664,3.10303 v 0 c 0.44274,-1.14582 2.89349,-2.2419 4.45664,-3.10303 m -2.59397,0.096 c 0.007,0.9645 -2.3495,1.58821 -3.11326,2.53541 v 0 c 0.11289,-0.86994 2.46168,-1.50212 3.11326,-2.53541 m 9.28017,0.75671 c -3.82834,2.15582 -7.87647,4.12997 -12.55571,5.60211 v 0 c 2.81058,-2.23696 8.44268,-3.79836 12.55571,-5.60211 m -17.31998,0.53834 c -0.0579,0.0314 -0.11818,0.0635 -0.17674,0.0963 v 0 c 0.0554,-0.0342 0.1136,-0.067 0.17674,-0.0963 m 21.66338,0.83502 c -3.66924,0.95779 -6.72606,3.11926 -12.53243,4.02943 v 0 c 4.41502,-1.48484 7.84719,-3.7338 12.53243,-4.02943 m -17.42934,1.29329 c 0.13194,0.26282 -0.71719,0.56127 -0.13582,0.61171 v 0 c -0.0134,0.22225 -0.19191,0.13124 -0.19508,0.0229 v 0 c -0.61101,0.22543 -0.7105,0.86466 -1.49613,0.96415 v 0 c 0.39299,-0.7112 1.13312,-1.13736 1.82703,-1.59879 m 0.72355,1.11089 c -1.64853,1.86937 -6.92997,4.88104 -9.22655,6.82837 v 0 c -0.09,0.25506 -0.76341,-0.0452 -1.15464,0.33267 v 0 c 0.45579,0.33091 0.37077,0.30727 0.13511,0.28469 v 0 c -0.20496,-0.0226 -0.52564,-0.0423 -0.69074,0.17639 v 0 c 0.70662,0.25718 1.41676,0.10971 2.08704,-0.0374 v 0 c 0.69179,-0.15276 1.34161,-0.3041 1.90606,-0.0159 v 0 c -1.75613,1.40335 -3.89855,1.2125 -5.2197,1.59032 v 0 c -0.24166,-0.61736 0.46849,-0.47307 0.50306,-0.86289 v 0 c 0.32244,0.0413 -0.13265,0.37253 0.24518,0.37571 v 0 c 0.32738,0.0864 0.34748,-0.0773 0.36865,-0.23989 v 0 c 0.0191,-0.16475 0.0392,-0.32773 0.37183,-0.24342 v 0 c -0.32244,-0.54786 -0.70767,-0.29422 -1.17299,-0.0381 v 0 c -0.2988,0.16263 -0.62794,0.32808 -0.98989,0.27799 v 0 c -0.0392,0.34784 0.19544,0.35278 0.4325,0.34784 v 0 c -0.0243,0.26211 -0.36689,0.254 -0.39475,0.0557 v 0 c -0.59055,0.27516 -1.51095,0.1845 -1.88525,1.00612 v 0 c -0.1965,-0.10125 -0.77152,-0.38241 -0.56056,0.26247 v 0 c -0.10125,-0.16087 -0.61948,-0.008 -1.03999,0.14569 v 0 c -0.51118,0.18768 -0.87277,0.37606 -0.14746,-0.0102 v 0 c 1.6517,-1.00682 3.77578,-2.0701 5.42043,-3.40077 v 0 c 3.35033,-0.8255 6.15632,-3.56165 8.97643,-5.40527 v 0 c -0.11501,-0.4579 -0.50906,0.28646 -0.76941,0.28999 v 0 c 0.061,-0.5528 1.93287,-1.20968 2.80564,-1.72015 m -3.39619,1.77941 c -0.0624,0.73766 -2.20063,1.35679 -2.96263,2.1329 v 0 c 0.0769,-0.72743 2.17523,-1.37266 2.96263,-2.1329 m 22.84095,0.63853 c -2.09056,1.14582 -5.2952,1.39453 -8.18057,1.92123 v 0 c 1.82669,-0.64488 5.46877,-1.39136 8.18057,-1.92123 m -11.57217,3.69676 c -2.69064,0.90064 -5.74534,1.51589 -8.96902,2.00201 v 0 c 1.97026,-0.77046 5.91679,-1.50424 8.96902,-2.00201 m -7.44714,4.82212 c 5.17843,-2.07716 10.48985,-0.40358 16.35231,-2.02777 v 0 c -3.25367,1.63407 -7.4616,2.57775 -11.43141,2.57775 v 0 c -0.001,0 -0.003,0 -0.005,0 v 0 c -1.71556,0 -3.38631,-0.17674 -4.91631,-0.54998 m -12.21317,-0.22543 c -0.86289,0.80645 -2.92488,0.66076 -4.27425,1.07774 v 0 c 0.98919,-0.71014 2.75131,-0.7934 4.27425,-1.07774 m 0.61913,1.92441 c 1.03964,-0.54328 3.19581,-0.81457 3.81,0.17709 v 0 c -1.26436,-0.0635 -2.56999,-0.0885 -3.81,-0.17709 m -7.74277,0.47166 c 0.10125,-0.21237 1.15747,-0.27199 1.73038,-0.59796 v 0 c 0.0194,0.20391 0.0395,0.40288 0.0684,0.59796 v 0 c 2.4324,-0.61383 3.79694,-0.39758 5.46523,-0.18168 v 0 c 0.88688,0.11324 1.85949,0.2286 3.12596,0.2159 v 0 c -0.57785,0.44521 -1.29434,0.34043 -2.01436,0.2353 v 0 c -0.46143,-0.067 -0.92639,-0.13194 -1.35854,-0.0568 v 0 c -0.70097,0.10301 0.4893,0.60783 -0.12665,0.617 v 0 c -2.23379,-0.363 -5.0292,-0.009 -6.89046,-0.82973 m 25.03558,0.59232 c 5.06166,-0.33409 11.54571,-0.50765 17.27306,-0.93663 v 0 c -3.13866,1.1684 -7.07355,1.78364 -10.7061,1.78364 v 0 c -2.43487,0 -4.73357,-0.27587 -6.56696,-0.84701 m -3.70028,2.61549 c 2.21897,-0.23107 5.59717,0.0363 8.02005,0.29845 v 0 c -0.79869,0.24377 -1.61537,0.33337 -2.42994,0.33337 v 0 c -1.92264,0 -3.84916,-0.496 -5.59011,-0.63182 m 32.50423,0.0864 c 1.64818,0.0363 2.78871,0.072 3.07376,0.0582 v 0 c -6.22406,1.3088 -11.66813,1.20756 -16.59961,1.10948 v 0 c -2.1904,-0.0441 -4.28025,-0.0885 -6.29179,-0.01 v 0 c 4.53355,-1.37795 14.66039,-1.26718 19.81764,-1.15782 m -24.03404,-33.2045 c 0.067,-0.0624 0.1337,-0.12594 0.20073,-0.1898 v 0 c -0.10442,0.004 -0.20743,0.0783 -0.20073,0.1898 m -3.75955,9.2135 c 0,0 0,0 0.001,0.004 v 0 c 0.0134,-0.0102 0.0187,-0.0152 0.0187,-0.0152 v 0 c 0,0 -0.006,0.004 -0.0197,0.0117"
       style="fill:url(#linearGradient105);stroke:none;stroke-width:0.82059" /><path
       id="path108"
       d="m 169.85121,-354.9123 c 0.0212,0.0317 0.043,0.0624 0.0674,0.09 v 0 c 0,0 -6.14645,17.73767 15.55079,20.12597 v 0 c 0,0 8.41728,2.13713 16.78129,-2.03129 v 0 c 0,0 3.50626,-2.27754 6.81849,-1.00013 v 0 c 3.31505,1.27671 22.95137,-10.17764 24.00229,-10.82675 v 0 c 0,0 12.40543,-4.23333 14.84348,-3.25896 v 0 c 0,0 1.31268,-0.50447 5.0232,1.33491 v 0 c 0,0 -0.0229,-0.0536 -0.0635,-0.13934 v 0 c -3.91125,-2.11702 -13.47682,-4.61222 -36.63421,-5.3139 v 0 c -8.31391,-0.25258 -15.20578,-0.35701 -20.92818,-0.35701 v 0 c -14.74682,0 -21.74699,0.6985 -25.46103,1.37654"
       style="fill:url(#linearGradient108);stroke:none;stroke-width:0.82059" /><path
       id="path111"
       d="m 195.95888,-381.24469 c -6.71619,0 -14.04867,1.91664 -21.74875,6.96948 v 0 c 0,0 -12.78043,9.50136 -4.36739,19.35339 v 0 c 5.15973,-0.94157 16.65111,-1.92052 46.39768,-1.02341 v 0 c 23.15739,0.70273 32.72296,3.19687 36.63386,5.31918 v 0 0 c -0.31327,-0.72319 -2.26166,-4.26826 -10.63061,-5.84976 v 0 c 0,0 -4.67924,-1.32538 -10.85144,-7.28803 v 0 c -4.46052,-4.318 -17.81316,-17.48085 -35.42312,-17.48085 v 0 c -0.004,0 -0.007,0 -0.0102,0"
       style="fill:url(#linearGradient111);stroke:none;stroke-width:0.82059" /><g
       id="g114"
       clip-path="url(#clipPath115)"
       transform="matrix(0.26458333,0,0,0.26458333,-163.38196,-730.79915)"
       style="stroke-width:2.32608"><path
         d="m 977.469,1802.994 c 0,0 -23.962,-19.969 3.968,-30.496 v 0 c 0,0 -0.219,-0.236 -0.59,-0.63 v 0 c 59.671,3.789 98.478,1.128 119.035,-1.361 v 0 c 1.76,0.103 3.168,-0.028 4.083,-0.476 v 0 h 10e-4 c -0.079,0.07 -4.274,3.711 -18.515,4.702 v 0 c 0,0 -7.435,2.105 -17.231,11.568 v 0 c -7.082,6.849 -28.279,27.743 -56.233,27.743 v 0 c -10.66,10e-4 -22.3,-3.037 -34.518,-11.05"
         transform="matrix(1.3333333,0,0,-1.3333333,0,3779.5333)"
         style="fill:url(#linearGradient114);stroke:none;stroke-width:2.32608"
         id="path114" /></g><g
       id="g117"
       clip-path="url(#clipPath118)"
       transform="matrix(0.26458333,0,0,0.26458333,-163.38196,-730.79915)"
       style="stroke-width:2.32608"><path
         d="m 980.898,1771.879 c -3.852,-4.132 -23.889,-27.658 14.494,-31.687 v 0 c 0,0 3.262,-0.825 8.158,-0.862 v 0 h 0.683 c 4.936,0.037 11.368,0.9 17.774,4.101 v 0 c 0,0 5.567,3.6 10.823,1.587 v 0 c 5.253,-2.041 36.429,16.14 38.092,17.17 v 0 c 0,0 19.431,7.688 29.006,8.319 v 0 c -13.164,1.594 -33.797,3.261 -62.595,3.262 v 0 c -16.189,0 -34.955,-0.527 -56.435,-1.89"
         transform="matrix(1.3333333,0,0,-1.3333333,0,3779.5333)"
         style="fill:url(#linearGradient117);stroke:none;stroke-width:2.32608"
         id="path117" /></g></g><path
     id="path119"
     d="m 0,0 c 0,20.163 15.744,33.237 34.435,33.237 11.693,0 21.084,-5.063 26.608,-12.06 l -8.378,-6.63 c -3.867,4.603 -9.392,8.379 -17.77,8.379 -12.153,0 -22.281,-9.024 -22.281,-22.926 0,-13.811 10.128,-22.558 22.281,-22.558 9.207,0 14.271,4.051 17.77,8.379 l 8.102,-6.261 C 56.256,-26.978 46.957,-32.962 34.435,-32.962 15.468,-32.962 0,-20.348 0,0"
     style="fill:#f9f9f9;fill-opacity:1;fill-rule:nonzero;stroke:none"
     transform="matrix(0.35277776,0,0,-0.35277776,172.55764,120.13241)"
     clip-path="url(#clipPath120)" /><path
     id="path121"
     d="m 0,0 c 12.062,0 21.821,10.313 21.821,22.558 0,12.245 -9.759,22.189 -21.821,22.189 -12.061,0 -21.821,-9.944 -21.821,-22.189 C -21.821,10.313 -12.061,0 0,0 m 0,55.52 c 19.335,0 34.435,-14.456 34.435,-32.962 0,-18.691 -15.284,-33.422 -34.435,-33.422 -19.335,0 -34.435,15.008 -34.435,33.422 0,18.69 15.284,32.962 34.435,32.962"
     style="fill:#f9f9f9;fill-opacity:1;fill-rule:nonzero;stroke:none"
     transform="matrix(0.35277776,0,0,-0.35277776,210.75652,127.96037)"
     clip-path="url(#clipPath122)" /><path
     id="path123"
     d="M 0,0 H 13.074 L 34.435,-32.87 55.888,0 H 68.962 V -64.45 H 56.348 v 44.379 L 34.435,-53.954 12.614,-20.071 V -64.45 H 0 Z"
     style="fill:#f9f9f9;fill-opacity:1;fill-rule:nonzero;stroke:none"
     transform="matrix(0.35277776,0,0,-0.35277776,230.14913,108.69918)"
     clip-path="url(#clipPath124)" /><path
     id="path125"
     d="m 1219.258,1148.557 h -12.614 v 64.45 h 12.614 z"
     style="fill:#f9f9f9;fill-opacity:1;fill-rule:nonzero;stroke:none"
     transform="matrix(0.35277776,0,0,-0.35277776,-162.52611,536.62102)"
     clip-path="url(#clipPath126)" /><path
     id="path127"
     d="m 0,0 c 2.486,-1.841 10.22,-7.733 23.754,-7.733 8.471,0 13.719,3.406 13.719,8.93 0,13.903 -43.089,5.893 -43.181,29.279 0,9.483 8.01,17.677 25.964,17.677 15.376,0 23.294,-4.88 27.069,-7.457 L 41.8,31.949 c -2.854,2.026 -9.575,5.893 -21.544,5.893 -10.404,0 -13.351,-3.499 -13.351,-7.182 0,-12.889 43.182,-4.695 43.182,-28.726 0,-11.509 -10.22,-19.98 -26.793,-19.98 -17.494,0 -26.608,7.09 -29.094,8.931 z"
     style="fill:#f9f9f9;fill-opacity:1;fill-rule:nonzero;stroke:none"
     transform="matrix(0.35277776,0,0,-0.35277776,276.9563,125.39447)"
     clip-path="url(#clipPath128)" /><path
     id="path129"
     d="m 1329.105,1148.557 h -12.614 v 64.45 h 12.614 z"
     style="fill:#f9f9f9;fill-opacity:1;fill-rule:nonzero;stroke:none"
     transform="matrix(0.35277776,0,0,-0.35277776,-162.52611,536.62102)"
     clip-path="url(#clipPath130)" /><path
     id="path131"
     d="m 0,0 5.709,-5.893 -12.522,-8.378 h -8.471 z m -4.788,-75.775 c 12.062,0 21.821,10.312 21.821,22.557 0,12.245 -9.759,22.19 -21.821,22.19 -12.061,0 -21.82,-9.945 -21.82,-22.19 0,-12.245 9.759,-22.557 21.82,-22.557 m -34.434,22.557 c 0,18.691 15.284,32.962 34.434,32.962 19.336,0 34.435,-14.455 34.435,-32.962 0,-18.69 -15.284,-33.422 -34.435,-33.422 -19.335,0 -34.434,15.008 -34.434,33.422"
     style="fill:#f9f9f9;fill-opacity:1;fill-rule:nonzero;stroke:none"
     transform="matrix(0.35277776,0,0,-0.35277776,327.69306,101.22848)"
     clip-path="url(#clipPath132)" /><path
     id="path133"
     d="M 0,0 32.962,-45.3 V 0 H 45.575 V -64.45 H 32.041 L -0.553,-19.427 V -64.45 H -13.166 V 0 Z"
     style="fill:#f9f9f9;fill-opacity:1;fill-rule:nonzero;stroke:none"
     transform="matrix(0.35277776,0,0,-0.35277776,350.04141,108.69918)"
     clip-path="url(#clipPath134)" /><path
     id="path135"
     d="M 0,0 32.962,-45.3 V 0 H 45.575 V -64.45 H 32.041 L -0.553,-19.427 V -64.45 H -13.166 V 0 Z"
     style="fill:#f9f9f9;fill-opacity:1;fill-rule:nonzero;stroke:none"
     transform="matrix(0.35277776,0,0,-0.35277776,390.57984,108.69918)"
     clip-path="url(#clipPath136)" /><path
     id="path137"
     d="M 0,0 H 24.583 L 12.245,26.701 Z M 5.708,40.88 H 18.874 L 48.521,-23.57 H 35.263 l -6.076,13.257 H -4.604 l -6.077,-13.257 h -13.257 z"
     style="fill:#f9f9f9;fill-opacity:1;fill-rule:nonzero;stroke:none"
     transform="matrix(0.35277776,0,0,-0.35277776,421.30836,123.12066)"
     clip-path="url(#clipPath138)" /><path
     id="path139"
     d="m 0,0 c 0,20.163 15.745,33.237 34.436,33.237 11.692,0 21.084,-5.063 26.608,-12.06 l -8.379,-6.63 C 48.799,19.15 43.274,22.926 34.896,22.926 22.742,22.926 12.614,13.902 12.614,0 c 0,-13.811 10.128,-22.558 22.282,-22.558 9.207,0 14.271,4.051 17.769,8.379 l 8.103,-6.261 C 56.256,-26.978 46.957,-32.962 34.436,-32.962 15.469,-32.962 0,-20.348 0,0"
     style="fill:#f9f9f9;fill-opacity:1;fill-rule:nonzero;stroke:none"
     transform="matrix(0.35277776,0,0,-0.35277776,441.86971,120.13241)"
     clip-path="url(#clipPath140)" /><path
     id="path141"
     d="m 1807.44,1148.557 h -12.613 v 64.45 h 12.613 z"
     style="fill:#f9f9f9;fill-opacity:1;fill-rule:nonzero;stroke:none"
     transform="matrix(0.35277776,0,0,-0.35277776,-162.52611,536.62102)"
     clip-path="url(#clipPath142)" /><path
     id="path143"
     d="m 0,0 c 12.062,0 21.82,10.313 21.82,22.558 0,12.245 -9.758,22.189 -21.82,22.189 -12.062,0 -21.821,-9.944 -21.821,-22.189 C -21.821,10.313 -12.062,0 0,0 M 0,55.52 C 19.335,55.52 34.435,41.064 34.435,22.558 34.435,3.867 19.15,-10.864 0,-10.864 c -19.335,0 -34.436,15.008 -34.436,33.422 0,18.69 15.285,32.962 34.436,32.962"
     style="fill:#f9f9f9;fill-opacity:1;fill-rule:nonzero;stroke:none"
     transform="matrix(0.35277776,0,0,-0.35277776,494.75055,127.96037)"
     clip-path="url(#clipPath144)" /><path
     id="path145"
     d="M 0,0 32.962,-45.3 V 0 H 45.575 V -64.45 H 32.041 L -0.553,-19.427 V -64.45 H -13.166 V 0 Z"
     style="fill:#f9f9f9;fill-opacity:1;fill-rule:nonzero;stroke:none"
     transform="matrix(0.35277776,0,0,-0.35277776,518.78803,108.69918)"
     clip-path="url(#clipPath146)" /><path
     id="path147"
     d="M 0,0 H 24.583 L 12.245,26.701 Z M 5.708,40.88 H 18.874 L 48.521,-23.57 H 35.263 l -6.076,13.257 H -4.604 l -6.077,-13.257 h -13.258 z"
     style="fill:#f9f9f9;fill-opacity:1;fill-rule:nonzero;stroke:none"
     transform="matrix(0.35277776,0,0,-0.35277776,549.51655,123.12066)"
     clip-path="url(#clipPath148)" /><path
     id="path149"
     d="m 0,0 v -10.313 h -44.931 v 64.451 h 12.614 V 0 Z"
     style="fill:#f9f9f9;fill-opacity:1;fill-rule:nonzero;stroke:none"
     transform="matrix(0.35277776,0,0,-0.35277776,588.68936,127.79776)"
     clip-path="url(#clipPath150)" /><path
     id="path151"
     d="M 0,0 V -10.22 H -36.368 V -28.542 H -4.787 V -38.763 H -36.368 V -64.45 H -48.981 V 0 Z"
     style="fill:#f9f9f9;fill-opacity:1;fill-rule:nonzero;stroke:none"
     transform="matrix(0.35277776,0,0,-0.35277776,624.41983,108.69918)"
     clip-path="url(#clipPath152)" /><path
     id="path153"
     d="m 0,0 c 12.062,0 21.82,10.313 21.82,22.558 0,12.245 -9.758,22.189 -21.82,22.189 -12.062,0 -21.821,-9.944 -21.821,-22.189 C -21.821,10.313 -12.062,0 0,0 M 0,55.52 C 19.335,55.52 34.435,41.064 34.435,22.558 34.435,3.867 19.15,-10.864 0,-10.864 c -19.335,0 -34.435,15.008 -34.435,33.422 0,18.69 15.284,32.962 34.435,32.962"
     style="fill:#f9f9f9;fill-opacity:1;fill-rule:nonzero;stroke:none"
     transform="matrix(0.35277776,0,0,-0.35277776,641.47408,127.96037)"
     clip-path="url(#clipPath154)" /><path
     id="path155"
     d="m 0,0 h 16.757 c 8.287,0.093 12.246,4.88 12.246,11.141 0,6.721 -4.42,11.14 -12.246,11.14 H 0 Z m -12.613,-31.856 v 64.45 h 31.027 c 13.442,0 22.742,-9.3 22.742,-21.453 0,-9.115 -5.524,-17.125 -14.548,-19.887 l 16.297,-23.11 H 28.542 L 13.351,-10.312 H 0 v -21.544 z"
     style="fill:#f9f9f9;fill-opacity:1;fill-rule:nonzero;stroke:none"
     transform="matrix(0.35277776,0,0,-0.35277776,665.31653,120.19752)"
     clip-path="url(#clipPath156)" /><path
     id="path157"
     d="m 0,0 v -10.22 h -36.368 v -17.033 h 31.581 v -9.944 H -36.368 V -54.23 H 0 V -64.45 H -48.981 V 0 Z"
     style="fill:#f9f9f9;fill-opacity:1;fill-rule:nonzero;stroke:none"
     transform="matrix(0.35277776,0,0,-0.35277776,704.32709,108.69918)"
     clip-path="url(#clipPath158)" /><path
     id="path159"
     d="m 0,0 c 2.485,-1.841 10.22,-7.733 23.754,-7.733 8.471,0 13.719,3.406 13.719,8.93 0,13.903 -43.09,5.893 -43.182,29.279 0,9.483 8.011,17.677 25.964,17.677 15.376,0 23.295,-4.88 27.069,-7.457 L 41.8,31.949 c -2.855,2.026 -9.575,5.893 -21.545,5.893 -10.403,0 -13.35,-3.499 -13.35,-7.182 0,-12.889 43.182,-4.695 43.182,-28.726 0,-11.509 -10.221,-19.98 -26.793,-19.98 -17.494,0 -26.609,7.09 -29.095,8.931 z"
     style="fill:#f9f9f9;fill-opacity:1;fill-rule:nonzero;stroke:none"
     transform="matrix(0.35277776,0,0,-0.35277776,712.44887,125.39447)"
     clip-path="url(#clipPath160)" /><path
     id="path161"
     d="M 0,0 H 53.77 V -10.313 H 33.146 V -64.45 H 20.624 v 54.137 H 0 Z"
     style="fill:#f9f9f9;fill-opacity:1;fill-rule:nonzero;stroke:none"
     transform="matrix(0.35277776,0,0,-0.35277776,734.69975,108.69918)"
     clip-path="url(#clipPath162)" /><path
     id="path163"
     d="M 0,0 H 24.583 L 12.245,26.701 Z M 5.708,40.88 H 18.874 L 48.521,-23.57 H 35.263 l -6.076,13.257 H -4.604 l -6.077,-13.257 h -13.257 z"
     style="fill:#f9f9f9;fill-opacity:1;fill-rule:nonzero;stroke:none"
     transform="matrix(0.35277776,0,0,-0.35277776,764.29101,123.12066)"
     clip-path="url(#clipPath164)" /><path
     id="path165"
     d="m 0,0 v -10.313 h -44.931 v 64.451 h 12.614 V 0 Z"
     style="fill:#f9f9f9;fill-opacity:1;fill-rule:nonzero;stroke:none"
     transform="matrix(0.35277776,0,0,-0.35277776,803.46384,127.79776)"
     clip-path="url(#clipPath166)" /></svg>
